<?xml version="1.0" encoding="UTF-8" standalone="no"?>
<!DOCTYPE svg PUBLIC "-//W3C//DTD SVG 1.1//EN"
 "http://www.w3.org/Graphics/SVG/1.1/DTD/svg11.dtd">
<!-- Generated by graphviz version 13.1.1 (20250719.2154)
 -->
<!-- Pages: 1 -->
<svg width="563pt" height="538pt"
 viewBox="0.00 0.00 563.00 538.00" xmlns="http://www.w3.org/2000/svg" xmlns:xlink="http://www.w3.org/1999/xlink">
<g id="graph0" class="graph" transform="scale(1 1) rotate(0) translate(4 534)">
<polygon fill="#eeeeee" stroke="none" points="-4,4 -4,-534 559.05,-534 559.05,4 -4,4"/>
<!-- BiocommonsUser -->
<g id="node1" class="node">
<title>BiocommonsUser</title>
<g id="a_node1"><a xlink:href="http://BiocommonsUser_details.html" xlink:title="&lt;TABLE&gt;">
<polygon fill="#3f51b5" stroke="none" points="117.3,-507.25 117.3,-526 294.3,-526 294.3,-507.25 117.3,-507.25"/>
<polygon fill="none" stroke="black" points="117.3,-507.25 117.3,-526 294.3,-526 294.3,-507.25 117.3,-507.25"/>
<text xml:space="preserve" text-anchor="start" x="158.18" y="-511.6" font-family="Roboto" font-size="12.00" fill="white">BiocommonsUser</text>
<polygon fill="#bbdefb" stroke="none" points="117.3,-488.5 117.3,-507.25 179.55,-507.25 179.55,-488.5 117.3,-488.5"/>
<polygon fill="none" stroke="black" points="117.3,-488.5 117.3,-507.25 179.55,-507.25 179.55,-488.5 117.3,-488.5"/>
<text xml:space="preserve" text-anchor="start" x="143.55" y="-492.85" font-family="Roboto" font-size="12.00">id</text>
<polygon fill="#bbdefb" stroke="none" points="179.55,-488.5 179.55,-507.25 294.3,-507.25 294.3,-488.5 179.55,-488.5"/>
<polygon fill="none" stroke="black" points="179.55,-488.5 179.55,-507.25 294.3,-507.25 294.3,-488.5 179.55,-488.5"/>
<text xml:space="preserve" text-anchor="start" x="193.8" y="-492.85" font-family="Roboto" font-size="12.00">VARCHAR (PK)</text>
<polygon fill="#bbdefb" stroke="none" points="117.3,-469.75 117.3,-488.5 179.55,-488.5 179.55,-469.75 117.3,-469.75"/>
<polygon fill="none" stroke="black" points="117.3,-469.75 117.3,-488.5 179.55,-488.5 179.55,-469.75 117.3,-469.75"/>
<text xml:space="preserve" text-anchor="start" x="133.8" y="-474.1" font-family="Roboto" font-size="12.00">email</text>
<polygon fill="#bbdefb" stroke="none" points="179.55,-469.75 179.55,-488.5 294.3,-488.5 294.3,-469.75 179.55,-469.75"/>
<polygon fill="none" stroke="black" points="179.55,-469.75 179.55,-488.5 294.3,-488.5 294.3,-469.75 179.55,-469.75"/>
<text xml:space="preserve" text-anchor="start" x="182.55" y="-474.1" font-family="Roboto" font-size="12.00">VARCHAR (Unique)</text>
<polygon fill="#bbdefb" stroke="none" points="117.3,-451 117.3,-469.75 179.55,-469.75 179.55,-451 117.3,-451"/>
<polygon fill="none" stroke="black" points="117.3,-451 117.3,-469.75 179.55,-469.75 179.55,-451 117.3,-451"/>
<text xml:space="preserve" text-anchor="start" x="121.8" y="-455.35" font-family="Roboto" font-size="12.00">username</text>
<polygon fill="#bbdefb" stroke="none" points="179.55,-451 179.55,-469.75 294.3,-469.75 294.3,-451 179.55,-451"/>
<polygon fill="none" stroke="black" points="179.55,-451 179.55,-469.75 294.3,-469.75 294.3,-451 179.55,-451"/>
<text xml:space="preserve" text-anchor="start" x="182.55" y="-455.35" font-family="Roboto" font-size="12.00">VARCHAR (Unique)</text>
<polygon fill="#bbdefb" stroke="none" points="117.3,-432.25 117.3,-451 179.55,-451 179.55,-432.25 117.3,-432.25"/>
<polygon fill="none" stroke="black" points="117.3,-432.25 117.3,-451 179.55,-451 179.55,-432.25 117.3,-432.25"/>
<text xml:space="preserve" text-anchor="start" x="120.3" y="-436.6" font-family="Roboto" font-size="12.00">created_at</text>
<polygon fill="#bbdefb" stroke="none" points="179.55,-432.25 179.55,-451 294.3,-451 294.3,-432.25 179.55,-432.25"/>
<polygon fill="none" stroke="black" points="179.55,-432.25 179.55,-451 294.3,-451 294.3,-432.25 179.55,-432.25"/>
<text xml:space="preserve" text-anchor="start" x="201.68" y="-436.6" font-family="Roboto" font-size="12.00">DATETIME ()</text>
</a>
</g>
</g>
<!-- PlatformMembership -->
<g id="node2" class="node">
<title>PlatformMembership</title>
<g id="a_node2"><a xlink:href="http://PlatformMembership_details.html" xlink:title="&lt;TABLE&gt;">
<polygon fill="#3f51b5" stroke="none" points="34.8,-358.25 34.8,-377 220.8,-377 220.8,-358.25 34.8,-358.25"/>
<polygon fill="none" stroke="black" points="34.8,-358.25 34.8,-377 220.8,-377 220.8,-358.25 34.8,-358.25"/>
<text xml:space="preserve" text-anchor="start" x="72.68" y="-362.6" font-family="Roboto" font-size="12.00" fill="white">PlatformMembership</text>
<polygon fill="#bbdefb" stroke="none" points="34.8,-339.5 34.8,-358.25 125.55,-358.25 125.55,-339.5 34.8,-339.5"/>
<polygon fill="none" stroke="black" points="34.8,-339.5 34.8,-358.25 125.55,-358.25 125.55,-339.5 34.8,-339.5"/>
<text xml:space="preserve" text-anchor="start" x="75.3" y="-343.85" font-family="Roboto" font-size="12.00">id</text>
<polygon fill="#bbdefb" stroke="none" points="125.55,-339.5 125.55,-358.25 220.8,-358.25 220.8,-339.5 125.55,-339.5"/>
<polygon fill="none" stroke="black" points="125.55,-339.5 125.55,-358.25 220.8,-358.25 220.8,-339.5 125.55,-339.5"/>
<text xml:space="preserve" text-anchor="start" x="131.55" y="-343.85" font-family="Roboto" font-size="12.00">CHAR(32) (PK)</text>
<polygon fill="#bbdefb" stroke="none" points="34.8,-320.75 34.8,-339.5 125.55,-339.5 125.55,-320.75 34.8,-320.75"/>
<polygon fill="none" stroke="black" points="34.8,-320.75 34.8,-339.5 125.55,-339.5 125.55,-320.75 34.8,-320.75"/>
<text xml:space="preserve" text-anchor="start" x="50.55" y="-325.1" font-family="Roboto" font-size="12.00">platform_id</text>
<polygon fill="#bbdefb" stroke="none" points="125.55,-320.75 125.55,-339.5 220.8,-339.5 220.8,-320.75 125.55,-320.75"/>
<polygon fill="none" stroke="black" points="125.55,-320.75 125.55,-339.5 220.8,-339.5 220.8,-320.75 125.55,-320.75"/>
<text xml:space="preserve" text-anchor="start" x="128.55" y="-325.1" font-family="Roboto" font-size="12.00">VARCHAR(11) ()</text>
<polygon fill="#bbdefb" stroke="none" points="34.8,-302 34.8,-320.75 125.55,-320.75 125.55,-302 34.8,-302"/>
<polygon fill="none" stroke="black" points="34.8,-302 34.8,-320.75 125.55,-320.75 125.55,-302 34.8,-302"/>
<text xml:space="preserve" text-anchor="start" x="60.3" y="-306.35" font-family="Roboto" font-size="12.00">user_id</text>
<polygon fill="#bbdefb" stroke="none" points="125.55,-302 125.55,-320.75 220.8,-320.75 220.8,-302 125.55,-302"/>
<polygon fill="none" stroke="black" points="125.55,-302 125.55,-320.75 220.8,-320.75 220.8,-302 125.55,-302"/>
<text xml:space="preserve" text-anchor="start" x="138.3" y="-306.35" font-family="Roboto" font-size="12.00">VARCHAR ()</text>
<polygon fill="#bbdefb" stroke="none" points="34.8,-283.25 34.8,-302 125.55,-302 125.55,-283.25 34.8,-283.25"/>
<polygon fill="none" stroke="black" points="34.8,-283.25 34.8,-302 125.55,-302 125.55,-283.25 34.8,-283.25"/>
<text xml:space="preserve" text-anchor="start" x="37.8" y="-287.6" font-family="Roboto" font-size="12.00">approval_status</text>
<polygon fill="#bbdefb" stroke="none" points="125.55,-283.25 125.55,-302 220.8,-302 220.8,-283.25 125.55,-283.25"/>
<polygon fill="none" stroke="black" points="125.55,-283.25 125.55,-302 220.8,-302 220.8,-283.25 125.55,-283.25"/>
<text xml:space="preserve" text-anchor="start" x="131.18" y="-287.6" font-family="Roboto" font-size="12.00">VARCHAR(8) ()</text>
<polygon fill="#bbdefb" stroke="none" points="34.8,-264.5 34.8,-283.25 125.55,-283.25 125.55,-264.5 34.8,-264.5"/>
<polygon fill="none" stroke="black" points="34.8,-264.5 34.8,-283.25 125.55,-283.25 125.55,-264.5 34.8,-264.5"/>
<text xml:space="preserve" text-anchor="start" x="50.18" y="-268.85" font-family="Roboto" font-size="12.00">updated_at</text>
<polygon fill="#bbdefb" stroke="none" points="125.55,-264.5 125.55,-283.25 220.8,-283.25 220.8,-264.5 125.55,-264.5"/>
<polygon fill="none" stroke="black" points="125.55,-264.5 125.55,-283.25 220.8,-283.25 220.8,-264.5 125.55,-264.5"/>
<text xml:space="preserve" text-anchor="start" x="137.93" y="-268.85" font-family="Roboto" font-size="12.00">DATETIME ()</text>
<polygon fill="#bbdefb" stroke="none" points="34.8,-245.75 34.8,-264.5 125.55,-264.5 125.55,-245.75 34.8,-245.75"/>
<polygon fill="none" stroke="black" points="34.8,-245.75 34.8,-264.5 125.55,-264.5 125.55,-245.75 34.8,-245.75"/>
<text xml:space="preserve" text-anchor="start" x="40.43" y="-250.1" font-family="Roboto" font-size="12.00">updated_by_id</text>
<polygon fill="#bbdefb" stroke="none" points="125.55,-245.75 125.55,-264.5 220.8,-264.5 220.8,-245.75 125.55,-245.75"/>
<polygon fill="none" stroke="black" points="125.55,-245.75 125.55,-264.5 220.8,-264.5 220.8,-245.75 125.55,-245.75"/>
<text xml:space="preserve" text-anchor="start" x="138.3" y="-250.1" font-family="Roboto" font-size="12.00">VARCHAR ()</text>
</a>
</g>
</g>
<!-- BiocommonsUser&#45;&gt;PlatformMembership -->
<g id="edge1" class="edge">
<title>BiocommonsUser&#45;&gt;PlatformMembership</title>
<g id="a_edge1"><a xlink:title="Relation between BiocommonsUser and PlatformMembership">
<path fill="none" stroke="#1e88e5" stroke-dasharray="5,2" d="M109.55,-469.24C71.11,-460.42 30.44,-443.28 6.8,-410.25 -6.1,-392.22 1.71,-375.69 18.27,-361.55"/>
<polygon fill="#1e88e5" stroke="#1e88e5" points="20.05,-364.59 25.85,-355.73 15.79,-359.04 20.05,-364.59"/>
</a>
</g>
<text xml:space="preserve" text-anchor="middle" x="56.3" y="-400.75" font-family="Roboto" font-size="10.00">platform_memberships</text>
</g>
<!-- GroupMembership -->
<g id="node3" class="node">
<title>GroupMembership</title>
<g id="a_node3"><a xlink:href="http://GroupMembership_details.html" xlink:title="&lt;TABLE&gt;">
<polygon fill="#3f51b5" stroke="none" points="263.43,-358.25 263.43,-377 444.18,-377 444.18,-358.25 263.43,-358.25"/>
<polygon fill="none" stroke="black" points="263.43,-358.25 263.43,-377 444.18,-377 444.18,-358.25 263.43,-358.25"/>
<text xml:space="preserve" text-anchor="start" x="304.3" y="-362.6" font-family="Roboto" font-size="12.00" fill="white">GroupMembership</text>
<polygon fill="#bbdefb" stroke="none" points="263.43,-339.5 263.43,-358.25 354.18,-358.25 354.18,-339.5 263.43,-339.5"/>
<polygon fill="none" stroke="black" points="263.43,-339.5 263.43,-358.25 354.18,-358.25 354.18,-339.5 263.43,-339.5"/>
<text xml:space="preserve" text-anchor="start" x="303.93" y="-343.85" font-family="Roboto" font-size="12.00">id</text>
<polygon fill="#bbdefb" stroke="none" points="354.18,-339.5 354.18,-358.25 444.18,-358.25 444.18,-339.5 354.18,-339.5"/>
<polygon fill="none" stroke="black" points="354.18,-339.5 354.18,-358.25 444.18,-358.25 444.18,-339.5 354.18,-339.5"/>
<text xml:space="preserve" text-anchor="start" x="357.55" y="-343.85" font-family="Roboto" font-size="12.00">CHAR(32) (PK)</text>
<polygon fill="#bbdefb" stroke="none" points="263.43,-320.75 263.43,-339.5 354.18,-339.5 354.18,-320.75 263.43,-320.75"/>
<polygon fill="none" stroke="black" points="263.43,-320.75 263.43,-339.5 354.18,-339.5 354.18,-320.75 263.43,-320.75"/>
<text xml:space="preserve" text-anchor="start" x="285.18" y="-325.1" font-family="Roboto" font-size="12.00">group_id</text>
<polygon fill="#bbdefb" stroke="none" points="354.18,-320.75 354.18,-339.5 444.18,-339.5 444.18,-320.75 354.18,-320.75"/>
<polygon fill="none" stroke="black" points="354.18,-320.75 354.18,-339.5 444.18,-339.5 444.18,-320.75 354.18,-320.75"/>
<text xml:space="preserve" text-anchor="start" x="364.3" y="-325.1" font-family="Roboto" font-size="12.00">VARCHAR ()</text>
<polygon fill="#bbdefb" stroke="none" points="263.43,-302 263.43,-320.75 354.18,-320.75 354.18,-302 263.43,-302"/>
<polygon fill="none" stroke="black" points="263.43,-302 263.43,-320.75 354.18,-320.75 354.18,-302 263.43,-302"/>
<text xml:space="preserve" text-anchor="start" x="288.93" y="-306.35" font-family="Roboto" font-size="12.00">user_id</text>
<polygon fill="#bbdefb" stroke="none" points="354.18,-302 354.18,-320.75 444.18,-320.75 444.18,-302 354.18,-302"/>
<polygon fill="none" stroke="black" points="354.18,-302 354.18,-320.75 444.18,-320.75 444.18,-302 354.18,-302"/>
<text xml:space="preserve" text-anchor="start" x="364.3" y="-306.35" font-family="Roboto" font-size="12.00">VARCHAR ()</text>
<polygon fill="#bbdefb" stroke="none" points="263.43,-283.25 263.43,-302 354.18,-302 354.18,-283.25 263.43,-283.25"/>
<polygon fill="none" stroke="black" points="263.43,-283.25 263.43,-302 354.18,-302 354.18,-283.25 263.43,-283.25"/>
<text xml:space="preserve" text-anchor="start" x="266.43" y="-287.6" font-family="Roboto" font-size="12.00">approval_status</text>
<polygon fill="#bbdefb" stroke="none" points="354.18,-283.25 354.18,-302 444.18,-302 444.18,-283.25 354.18,-283.25"/>
<polygon fill="none" stroke="black" points="354.18,-283.25 354.18,-302 444.18,-302 444.18,-283.25 354.18,-283.25"/>
<text xml:space="preserve" text-anchor="start" x="357.18" y="-287.6" font-family="Roboto" font-size="12.00">VARCHAR(8) ()</text>
<polygon fill="#bbdefb" stroke="none" points="263.43,-264.5 263.43,-283.25 354.18,-283.25 354.18,-264.5 263.43,-264.5"/>
<polygon fill="none" stroke="black" points="263.43,-264.5 263.43,-283.25 354.18,-283.25 354.18,-264.5 263.43,-264.5"/>
<text xml:space="preserve" text-anchor="start" x="278.8" y="-268.85" font-family="Roboto" font-size="12.00">updated_at</text>
<polygon fill="#bbdefb" stroke="none" points="354.18,-264.5 354.18,-283.25 444.18,-283.25 444.18,-264.5 354.18,-264.5"/>
<polygon fill="none" stroke="black" points="354.18,-264.5 354.18,-283.25 444.18,-283.25 444.18,-264.5 354.18,-264.5"/>
<text xml:space="preserve" text-anchor="start" x="363.93" y="-268.85" font-family="Roboto" font-size="12.00">DATETIME ()</text>
<polygon fill="#bbdefb" stroke="none" points="263.43,-245.75 263.43,-264.5 354.18,-264.5 354.18,-245.75 263.43,-245.75"/>
<polygon fill="none" stroke="black" points="263.43,-245.75 263.43,-264.5 354.18,-264.5 354.18,-245.75 263.43,-245.75"/>
<text xml:space="preserve" text-anchor="start" x="269.05" y="-250.1" font-family="Roboto" font-size="12.00">updated_by_id</text>
<polygon fill="#bbdefb" stroke="none" points="354.18,-245.75 354.18,-264.5 444.18,-264.5 444.18,-245.75 354.18,-245.75"/>
<polygon fill="none" stroke="black" points="354.18,-245.75 354.18,-264.5 444.18,-264.5 444.18,-245.75 354.18,-245.75"/>
<text xml:space="preserve" text-anchor="start" x="364.3" y="-250.1" font-family="Roboto" font-size="12.00">VARCHAR ()</text>
</a>
</g>
</g>
<!-- BiocommonsUser&#45;&gt;GroupMembership -->
<g id="edge2" class="edge">
<title>BiocommonsUser&#45;&gt;GroupMembership</title>
<g id="a_edge2"><a xlink:title="Relation between BiocommonsUser and GroupMembership">
<path fill="none" stroke="#1e88e5" stroke-dasharray="5,2" d="M225.6,-428.36C230.81,-418.13 236.99,-407.8 244.05,-399 246.8,-395.58 249.7,-392.22 252.72,-388.92"/>
<polygon fill="#1e88e5" stroke="#1e88e5" points="255.03,-391.57 259.42,-381.93 249.98,-386.72 255.03,-391.57"/>
</a>
</g>
<text xml:space="preserve" text-anchor="middle" x="287.93" y="-400.75" font-family="Roboto" font-size="10.00">group_memberships</text>
</g>
<!-- PlatformMembership&#45;&gt;BiocommonsUser -->
<g id="edge9" class="edge">
<title>PlatformMembership&#45;&gt;BiocommonsUser</title>
<g id="a_edge9"><a xlink:title="Relation between PlatformMembership and BiocommonsUser">
<path fill="none" stroke="#1e88e5" stroke-dasharray="5,2" d="M121.47,-380.86C122.56,-391.02 124.88,-401.14 129.05,-410.25 130.44,-413.28 132.04,-416.23 133.81,-419.1"/>
<polygon fill="#1e88e5" stroke="#1e88e5" points="130.94,-421.11 139.55,-427.28 136.67,-417.08 130.94,-421.11"/>
</a>
</g>
<text xml:space="preserve" text-anchor="middle" x="138.43" y="-400.75" font-family="Roboto" font-size="10.00">user</text>
</g>
<!-- PlatformMembership&#45;&gt;BiocommonsUser -->
<g id="edge10" class="edge">
<title>PlatformMembership&#45;&gt;BiocommonsUser</title>
<g id="a_edge10"><a xlink:title="Relation between PlatformMembership and BiocommonsUser">
<path fill="none" stroke="#1e88e5" stroke-dasharray="5,2" d="M157,-380.83C161.44,-390.75 166.04,-400.8 170.55,-410.25 171.78,-412.82 173.05,-415.43 174.34,-418.07"/>
<polygon fill="#1e88e5" stroke="#1e88e5" points="171.16,-419.53 178.76,-426.92 177.43,-416.41 171.16,-419.53"/>
</a>
</g>
<text xml:space="preserve" text-anchor="middle" x="195.68" y="-400.75" font-family="Roboto" font-size="10.00">updated_by</text>
</g>
<!-- GroupMembership&#45;&gt;BiocommonsUser -->
<g id="edge7" class="edge">
<title>GroupMembership&#45;&gt;BiocommonsUser</title>
<g id="a_edge7"><a xlink:title="Relation between GroupMembership and BiocommonsUser">
<path fill="none" stroke="#1e88e5" stroke-dasharray="5,2" d="M346.29,-380.99C342.99,-391.47 338.33,-401.65 331.8,-410.25 325.85,-418.1 318.72,-425.15 310.91,-431.45"/>
<polygon fill="#1e88e5" stroke="#1e88e5" points="309.3,-428.28 303.42,-437.09 313.51,-433.88 309.3,-428.28"/>
</a>
</g>
<text xml:space="preserve" text-anchor="middle" x="347.05" y="-400.75" font-family="Roboto" font-size="10.00">user</text>
</g>
<!-- GroupMembership&#45;&gt;BiocommonsUser -->
<g id="edge8" class="edge">
<title>GroupMembership&#45;&gt;BiocommonsUser</title>
<g id="a_edge8"><a xlink:title="Relation between GroupMembership and BiocommonsUser">
<path fill="none" stroke="#1e88e5" stroke-dasharray="5,2" d="M369.72,-380.83C369.11,-391.28 366.54,-401.48 360.8,-410.25 349.1,-428.15 331.52,-441.36 312.34,-451.1"/>
<polygon fill="#1e88e5" stroke="#1e88e5" points="311.12,-447.81 303.56,-455.24 314.1,-454.14 311.12,-447.81"/>
</a>
</g>
<text xml:space="preserve" text-anchor="middle" x="390.65" y="-400.75" font-family="Roboto" font-size="10.00">updated_by</text>
</g>
<!-- BiocommonsGroup -->
<g id="node4" class="node">
<title>BiocommonsGroup</title>
<g id="a_node4"><a xlink:href="http://BiocommonsGroup_details.html" xlink:title="&lt;TABLE&gt;">
<polygon fill="#3f51b5" stroke="none" points="259.05,-171.75 259.05,-190.5 446.55,-190.5 446.55,-171.75 259.05,-171.75"/>
<polygon fill="none" stroke="black" points="259.05,-171.75 259.05,-190.5 446.55,-190.5 446.55,-171.75 259.05,-171.75"/>
<text xml:space="preserve" text-anchor="start" x="301.43" y="-176.1" font-family="Roboto" font-size="12.00" fill="white">BiocommonsGroup</text>
<polygon fill="#bbdefb" stroke="none" points="259.05,-153 259.05,-171.75 312.3,-171.75 312.3,-153 259.05,-153"/>
<polygon fill="none" stroke="black" points="259.05,-153 259.05,-171.75 312.3,-171.75 312.3,-153 259.05,-153"/>
<text xml:space="preserve" text-anchor="start" x="262.05" y="-157.35" font-family="Roboto" font-size="12.00">group_id</text>
<polygon fill="#bbdefb" stroke="none" points="312.3,-153 312.3,-171.75 446.55,-171.75 446.55,-153 312.3,-153"/>
<polygon fill="none" stroke="black" points="312.3,-153 312.3,-171.75 446.55,-171.75 446.55,-153 312.3,-153"/>
<text xml:space="preserve" text-anchor="start" x="315.3" y="-157.35" font-family="Roboto" font-size="12.00">VARCHAR (PK,Unique)</text>
<polygon fill="#bbdefb" stroke="none" points="259.05,-134.25 259.05,-153 312.3,-153 312.3,-134.25 259.05,-134.25"/>
<polygon fill="none" stroke="black" points="259.05,-134.25 259.05,-153 312.3,-153 312.3,-134.25 259.05,-134.25"/>
<text xml:space="preserve" text-anchor="start" x="270.68" y="-138.6" font-family="Roboto" font-size="12.00">name</text>
<polygon fill="#bbdefb" stroke="none" points="312.3,-134.25 312.3,-153 446.55,-153 446.55,-134.25 312.3,-134.25"/>
<polygon fill="none" stroke="black" points="312.3,-134.25 312.3,-153 446.55,-153 446.55,-134.25 312.3,-134.25"/>
<text xml:space="preserve" text-anchor="start" x="325.05" y="-138.6" font-family="Roboto" font-size="12.00">VARCHAR (Unique)</text>
</a>
</g>
</g>
<!-- GroupMembership&#45;&gt;BiocommonsGroup -->
<g id="edge6" class="edge">
<title>GroupMembership&#45;&gt;BiocommonsGroup</title>
<g id="a_edge6"><a xlink:title="Relation between GroupMembership and BiocommonsGroup">
<path fill="none" stroke="#1e88e5" stroke-dasharray="5,2" d="M325.72,-241.78C324.38,-231.97 324.45,-221.99 326.8,-212.5 327.44,-209.93 328.24,-207.35 329.16,-204.79"/>
<polygon fill="#1e88e5" stroke="#1e88e5" points="332.28,-206.41 332.92,-195.84 325.82,-203.7 332.28,-206.41"/>
</a>
</g>
<text xml:space="preserve" text-anchor="middle" x="338.8" y="-214.25" font-family="Roboto" font-size="10.00">group</text>
</g>
<!-- BiocommonsGroup&#45;&gt;GroupMembership -->
<g id="edge4" class="edge">
<title>BiocommonsGroup&#45;&gt;GroupMembership</title>
<g id="a_edge4"><a xlink:title="Relation between BiocommonsGroup and GroupMembership">
<path fill="none" stroke="#1e88e5" stroke-dasharray="5,2" d="M354.26,-194.29C354.48,-200.33 354.69,-206.61 354.8,-212.5 354.93,-218.45 355,-224.6 355.02,-230.78"/>
<polygon fill="#1e88e5" stroke="#1e88e5" points="351.52,-230.41 355.04,-240.41 358.52,-230.4 351.52,-230.41"/>
</a>
</g>
<text xml:space="preserve" text-anchor="middle" x="375.22" y="-214.25" font-family="Roboto" font-size="10.00">members</text>
</g>
<!-- Auth0Role -->
<g id="node5" class="node">
<title>Auth0Role</title>
<g id="a_node5"><a xlink:href="http://Auth0Role_details.html" xlink:title="&lt;TABLE&gt;">
<polygon fill="#3f51b5" stroke="none" points="177.43,-60.25 177.43,-79 376.18,-79 376.18,-60.25 177.43,-60.25"/>
<polygon fill="none" stroke="black" points="177.43,-60.25 177.43,-79 376.18,-79 376.18,-60.25 177.43,-60.25"/>
<text xml:space="preserve" text-anchor="start" x="248.3" y="-64.6" font-family="Roboto" font-size="12.00" fill="white">Auth0Role</text>
<polygon fill="#bbdefb" stroke="none" points="177.43,-41.5 177.43,-60.25 241.93,-60.25 241.93,-41.5 177.43,-41.5"/>
<polygon fill="none" stroke="black" points="177.43,-41.5 177.43,-60.25 241.93,-60.25 241.93,-41.5 177.43,-41.5"/>
<text xml:space="preserve" text-anchor="start" x="204.8" y="-45.85" font-family="Roboto" font-size="12.00">id</text>
<polygon fill="#bbdefb" stroke="none" points="241.93,-41.5 241.93,-60.25 376.18,-60.25 376.18,-41.5 241.93,-41.5"/>
<polygon fill="none" stroke="black" points="241.93,-41.5 241.93,-60.25 376.18,-60.25 376.18,-41.5 241.93,-41.5"/>
<text xml:space="preserve" text-anchor="start" x="244.93" y="-45.85" font-family="Roboto" font-size="12.00">VARCHAR (PK,Unique)</text>
<polygon fill="#bbdefb" stroke="none" points="177.43,-22.75 177.43,-41.5 241.93,-41.5 241.93,-22.75 177.43,-22.75"/>
<polygon fill="none" stroke="black" points="177.43,-22.75 177.43,-41.5 241.93,-41.5 241.93,-22.75 177.43,-22.75"/>
<text xml:space="preserve" text-anchor="start" x="194.68" y="-27.1" font-family="Roboto" font-size="12.00">name</text>
<polygon fill="#bbdefb" stroke="none" points="241.93,-22.75 241.93,-41.5 376.18,-41.5 376.18,-22.75 241.93,-22.75"/>
<polygon fill="none" stroke="black" points="241.93,-22.75 241.93,-41.5 376.18,-41.5 376.18,-22.75 241.93,-22.75"/>
<text xml:space="preserve" text-anchor="start" x="274.18" y="-27.1" font-family="Roboto" font-size="12.00">VARCHAR ()</text>
<polygon fill="#bbdefb" stroke="none" points="177.43,-4 177.43,-22.75 241.93,-22.75 241.93,-4 177.43,-4"/>
<polygon fill="none" stroke="black" points="177.43,-4 177.43,-22.75 241.93,-22.75 241.93,-4 177.43,-4"/>
<text xml:space="preserve" text-anchor="start" x="180.43" y="-8.35" font-family="Roboto" font-size="12.00">description</text>
<polygon fill="#bbdefb" stroke="none" points="241.93,-4 241.93,-22.75 376.18,-22.75 376.18,-4 241.93,-4"/>
<polygon fill="none" stroke="black" points="241.93,-4 241.93,-22.75 376.18,-22.75 376.18,-4 241.93,-4"/>
<text xml:space="preserve" text-anchor="start" x="274.18" y="-8.35" font-family="Roboto" font-size="12.00">VARCHAR ()</text>
</a>
</g>
</g>
<!-- BiocommonsGroup&#45;&gt;Auth0Role -->
<g id="edge3" class="edge">
<title>BiocommonsGroup&#45;&gt;Auth0Role</title>
<g id="a_edge3"><a xlink:title="Relation between BiocommonsGroup and Auth0Role">
<path fill="none" stroke="#1e88e5" stroke-dasharray="5,2" d="M293,-130.31C287.17,-125.04 282.05,-119.03 278.3,-112.25 275.27,-106.75 273.4,-100.62 272.35,-94.33"/>
<polygon fill="#1e88e5" stroke="#1e88e5" points="275.84,-94.09 271.42,-84.46 268.87,-94.74 275.84,-94.09"/>
</a>
</g>
<text xml:space="preserve" text-anchor="middle" x="304.55" y="-102.75" font-family="Roboto" font-size="10.00">admin_roles</text>
</g>
<!-- GroupMembershipHistory -->
<g id="node6" class="node">
<title>GroupMembershipHistory</title>
<text xml:space="preserve" text-anchor="middle" x="478.8" y="-36.48" font-family="Roboto" font-size="12.00">GroupMembershipHistory</text>
</g>
<!-- BiocommonsGroup&#45;&gt;GroupMembershipHistory -->
<g id="edge5" class="edge">
<title>BiocommonsGroup&#45;&gt;GroupMembershipHistory</title>
<g id="a_edge5"><a xlink:title="Relation between BiocommonsGroup and GroupMembershipHistory">
<path fill="none" stroke="#1e88e5" stroke-dasharray="5,2" d="M385.58,-130.45C406.54,-110.68 433.35,-85.38 452.84,-67"/>
<polygon fill="#1e88e5" stroke="#1e88e5" points="454.99,-69.78 459.86,-60.37 450.19,-64.69 454.99,-69.78"/>
</a>
</g>
<text xml:space="preserve" text-anchor="middle" x="451.43" y="-102.75" font-family="Roboto" font-size="10.00">approval_history</text>
</g>
<!-- Auth0Role&#45;&gt;BiocommonsGroup -->
<g id="edge11" class="edge">
<title>Auth0Role&#45;&gt;BiocommonsGroup</title>
<g id="a_edge11"><a xlink:title="Relation between Auth0Role and BiocommonsGroup">
<path fill="none" stroke="#1e88e5" stroke-dasharray="5,2" d="M317.63,-82.72C322.44,-88.57 326.99,-94.74 330.8,-101 334.43,-106.94 337.59,-113.57 340.3,-120.19"/>
<polygon fill="#1e88e5" stroke="#1e88e5" points="336.85,-120.97 343.66,-129.09 343.4,-118.5 336.85,-120.97"/>
</a>
</g>
<text xml:space="preserve" text-anchor="middle" x="366.97" y="-102.75" font-family="Roboto" font-size="10.00">admin_groups</text>
</g>
</g>
</svg>
