<?xml version="1.0" encoding="UTF-8" standalone="no"?>
<!DOCTYPE svg PUBLIC "-//W3C//DTD SVG 1.1//EN"
 "http://www.w3.org/Graphics/SVG/1.1/DTD/svg11.dtd">
<!-- Generated by graphviz version 14.0.0 (20250921.2048)
 -->
<!-- Pages: 1 -->
<svg width="539pt" height="1098pt"
 viewBox="0.00 0.00 539.00 1098.00" xmlns="http://www.w3.org/2000/svg" xmlns:xlink="http://www.w3.org/1999/xlink">
<g id="graph0" class="graph" transform="scale(1 1) rotate(0) translate(4 1093.5)">
<polygon fill="#eeeeee" stroke="none" points="-4,4 -4,-1093.5 535.25,-1093.5 535.25,4 -4,4"/>
<!-- BiocommonsUser -->
<g id="node1" class="node">
<title>BiocommonsUser</title>
<g id="a_node1"><a xlink:href="http://BiocommonsUser_details.html" xlink:title="&lt;TABLE&gt;">
<polygon fill="#3f51b5" stroke="none" points="135.12,-861.5 135.12,-880.25 330.88,-880.25 330.88,-861.5 135.12,-861.5"/>
<polygon fill="none" stroke="black" points="135.12,-861.5 135.12,-880.25 330.88,-880.25 330.88,-861.5 135.12,-861.5"/>
<text xml:space="preserve" text-anchor="start" x="185.38" y="-865.85" font-family="Roboto" font-size="12.00" fill="white">BiocommonsUser</text>
<polygon fill="#bbdefb" stroke="none" points="135.12,-842.75 135.12,-861.5 216.12,-861.5 216.12,-842.75 135.12,-842.75"/>
<polygon fill="none" stroke="black" points="135.12,-842.75 135.12,-861.5 216.12,-861.5 216.12,-842.75 135.12,-842.75"/>
<text xml:space="preserve" text-anchor="start" x="170.75" y="-847.1" font-family="Roboto" font-size="12.00">id</text>
<polygon fill="#bbdefb" stroke="none" points="216.12,-842.75 216.12,-861.5 330.88,-861.5 330.88,-842.75 216.12,-842.75"/>
<polygon fill="none" stroke="black" points="216.12,-842.75 216.12,-861.5 330.88,-861.5 330.88,-842.75 216.12,-842.75"/>
<text xml:space="preserve" text-anchor="start" x="230.38" y="-847.1" font-family="Roboto" font-size="12.00">VARCHAR (PK)</text>
<polygon fill="#bbdefb" stroke="none" points="135.12,-824 135.12,-842.75 216.12,-842.75 216.12,-824 135.12,-824"/>
<polygon fill="none" stroke="black" points="135.12,-824 135.12,-842.75 216.12,-842.75 216.12,-824 135.12,-824"/>
<text xml:space="preserve" text-anchor="start" x="161" y="-828.35" font-family="Roboto" font-size="12.00">email</text>
<polygon fill="#bbdefb" stroke="none" points="216.12,-824 216.12,-842.75 330.88,-842.75 330.88,-824 216.12,-824"/>
<polygon fill="none" stroke="black" points="216.12,-824 216.12,-842.75 330.88,-842.75 330.88,-824 216.12,-824"/>
<text xml:space="preserve" text-anchor="start" x="219.12" y="-828.35" font-family="Roboto" font-size="12.00">VARCHAR (Unique)</text>
<polygon fill="#bbdefb" stroke="none" points="135.12,-805.25 135.12,-824 216.12,-824 216.12,-805.25 135.12,-805.25"/>
<polygon fill="none" stroke="black" points="135.12,-805.25 135.12,-824 216.12,-824 216.12,-805.25 135.12,-805.25"/>
<text xml:space="preserve" text-anchor="start" x="138.12" y="-809.6" font-family="Roboto" font-size="12.00">email_verified</text>
<polygon fill="#bbdefb" stroke="none" points="216.12,-805.25 216.12,-824 330.88,-824 330.88,-805.25 216.12,-805.25"/>
<polygon fill="none" stroke="black" points="216.12,-805.25 216.12,-824 330.88,-824 330.88,-805.25 216.12,-805.25"/>
<text xml:space="preserve" text-anchor="start" x="239" y="-809.6" font-family="Roboto" font-size="12.00">BOOLEAN ()</text>
<polygon fill="#bbdefb" stroke="none" points="135.12,-786.5 135.12,-805.25 216.12,-805.25 216.12,-786.5 135.12,-786.5"/>
<polygon fill="none" stroke="black" points="135.12,-786.5 135.12,-805.25 216.12,-805.25 216.12,-786.5 135.12,-786.5"/>
<text xml:space="preserve" text-anchor="start" x="149" y="-790.85" font-family="Roboto" font-size="12.00">username</text>
<polygon fill="#bbdefb" stroke="none" points="216.12,-786.5 216.12,-805.25 330.88,-805.25 330.88,-786.5 216.12,-786.5"/>
<polygon fill="none" stroke="black" points="216.12,-786.5 216.12,-805.25 330.88,-805.25 330.88,-786.5 216.12,-786.5"/>
<text xml:space="preserve" text-anchor="start" x="219.12" y="-790.85" font-family="Roboto" font-size="12.00">VARCHAR (Unique)</text>
<polygon fill="#bbdefb" stroke="none" points="135.12,-767.75 135.12,-786.5 216.12,-786.5 216.12,-767.75 135.12,-767.75"/>
<polygon fill="none" stroke="black" points="135.12,-767.75 135.12,-786.5 216.12,-786.5 216.12,-767.75 135.12,-767.75"/>
<text xml:space="preserve" text-anchor="start" x="147.5" y="-772.1" font-family="Roboto" font-size="12.00">created_at</text>
<polygon fill="#bbdefb" stroke="none" points="216.12,-767.75 216.12,-786.5 330.88,-786.5 330.88,-767.75 216.12,-767.75"/>
<polygon fill="none" stroke="black" points="216.12,-767.75 216.12,-786.5 330.88,-786.5 330.88,-767.75 216.12,-767.75"/>
<text xml:space="preserve" text-anchor="start" x="238.25" y="-772.1" font-family="Roboto" font-size="12.00">DATETIME ()</text>
</a>
</g>
</g>
<!-- PlatformMembership -->
<g id="node2" class="node">
<title>PlatformMembership</title>
<g id="a_node2"><a xlink:href="http://PlatformMembership_details.html" xlink:title="&lt;TABLE&gt;">
<polygon fill="#3f51b5" stroke="none" points="187.38,-693.75 187.38,-712.5 402.62,-712.5 402.62,-693.75 187.38,-693.75"/>
<polygon fill="none" stroke="black" points="187.38,-693.75 187.38,-712.5 402.62,-712.5 402.62,-693.75 187.38,-693.75"/>
<text xml:space="preserve" text-anchor="start" x="239.88" y="-698.1" font-family="Roboto" font-size="12.00" fill="white">PlatformMembership</text>
<polygon fill="#bbdefb" stroke="none" points="187.38,-675 187.38,-693.75 292.38,-693.75 292.38,-675 187.38,-675"/>
<polygon fill="none" stroke="black" points="187.38,-675 187.38,-693.75 292.38,-693.75 292.38,-675 187.38,-675"/>
<text xml:space="preserve" text-anchor="start" x="235" y="-679.35" font-family="Roboto" font-size="12.00">id</text>
<polygon fill="#bbdefb" stroke="none" points="292.38,-675 292.38,-693.75 402.62,-693.75 402.62,-675 292.38,-675"/>
<polygon fill="none" stroke="black" points="292.38,-675 292.38,-693.75 402.62,-693.75 402.62,-675 292.38,-675"/>
<text xml:space="preserve" text-anchor="start" x="305.88" y="-679.35" font-family="Roboto" font-size="12.00">CHAR(32) (PK)</text>
<polygon fill="#bbdefb" stroke="none" points="187.38,-656.25 187.38,-675 292.38,-675 292.38,-656.25 187.38,-656.25"/>
<polygon fill="none" stroke="black" points="187.38,-656.25 187.38,-675 292.38,-675 292.38,-656.25 187.38,-656.25"/>
<text xml:space="preserve" text-anchor="start" x="210.25" y="-660.6" font-family="Roboto" font-size="12.00">platform_id</text>
<polygon fill="#bbdefb" stroke="none" points="292.38,-656.25 292.38,-675 402.62,-675 402.62,-656.25 292.38,-656.25"/>
<polygon fill="none" stroke="black" points="292.38,-656.25 292.38,-675 402.62,-675 402.62,-656.25 292.38,-656.25"/>
<text xml:space="preserve" text-anchor="start" x="302.12" y="-660.6" font-family="Roboto" font-size="12.00">VARCHAR(15) ()</text>
<polygon fill="#bbdefb" stroke="none" points="187.38,-637.5 187.38,-656.25 292.38,-656.25 292.38,-637.5 187.38,-637.5"/>
<polygon fill="none" stroke="black" points="187.38,-637.5 187.38,-656.25 292.38,-656.25 292.38,-637.5 187.38,-637.5"/>
<text xml:space="preserve" text-anchor="start" x="220" y="-641.85" font-family="Roboto" font-size="12.00">user_id</text>
<polygon fill="#bbdefb" stroke="none" points="292.38,-637.5 292.38,-656.25 402.62,-656.25 402.62,-637.5 292.38,-637.5"/>
<polygon fill="none" stroke="black" points="292.38,-637.5 292.38,-656.25 402.62,-656.25 402.62,-637.5 292.38,-637.5"/>
<text xml:space="preserve" text-anchor="start" x="312.62" y="-641.85" font-family="Roboto" font-size="12.00">VARCHAR ()</text>
<polygon fill="#bbdefb" stroke="none" points="187.38,-618.75 187.38,-637.5 292.38,-637.5 292.38,-618.75 187.38,-618.75"/>
<polygon fill="none" stroke="black" points="187.38,-618.75 187.38,-637.5 292.38,-637.5 292.38,-618.75 187.38,-618.75"/>
<text xml:space="preserve" text-anchor="start" x="197.5" y="-623.1" font-family="Roboto" font-size="12.00">approval_status</text>
<polygon fill="#bbdefb" stroke="none" points="292.38,-618.75 292.38,-637.5 402.62,-637.5 402.62,-618.75 292.38,-618.75"/>
<polygon fill="none" stroke="black" points="292.38,-618.75 292.38,-637.5 402.62,-637.5 402.62,-618.75 292.38,-618.75"/>
<text xml:space="preserve" text-anchor="start" x="305.5" y="-623.1" font-family="Roboto" font-size="12.00">VARCHAR(8) ()</text>
<polygon fill="#bbdefb" stroke="none" points="187.38,-600 187.38,-618.75 292.38,-618.75 292.38,-600 187.38,-600"/>
<polygon fill="none" stroke="black" points="187.38,-600 187.38,-618.75 292.38,-618.75 292.38,-600 187.38,-600"/>
<text xml:space="preserve" text-anchor="start" x="209.88" y="-604.35" font-family="Roboto" font-size="12.00">updated_at</text>
<polygon fill="#bbdefb" stroke="none" points="292.38,-600 292.38,-618.75 402.62,-618.75 402.62,-600 292.38,-600"/>
<polygon fill="none" stroke="black" points="292.38,-600 292.38,-618.75 402.62,-618.75 402.62,-600 292.38,-600"/>
<text xml:space="preserve" text-anchor="start" x="312.25" y="-604.35" font-family="Roboto" font-size="12.00">DATETIME ()</text>
<polygon fill="#bbdefb" stroke="none" points="187.38,-581.25 187.38,-600 292.38,-600 292.38,-581.25 187.38,-581.25"/>
<polygon fill="none" stroke="black" points="187.38,-581.25 187.38,-600 292.38,-600 292.38,-581.25 187.38,-581.25"/>
<text xml:space="preserve" text-anchor="start" x="200.12" y="-585.6" font-family="Roboto" font-size="12.00">updated_by_id</text>
<polygon fill="#bbdefb" stroke="none" points="292.38,-581.25 292.38,-600 402.62,-600 402.62,-581.25 292.38,-581.25"/>
<polygon fill="none" stroke="black" points="292.38,-581.25 292.38,-600 402.62,-600 402.62,-581.25 292.38,-581.25"/>
<text xml:space="preserve" text-anchor="start" x="312.62" y="-585.6" font-family="Roboto" font-size="12.00">VARCHAR ()</text>
<polygon fill="#bbdefb" stroke="none" points="187.38,-562.5 187.38,-581.25 292.38,-581.25 292.38,-562.5 187.38,-562.5"/>
<polygon fill="none" stroke="black" points="187.38,-562.5 187.38,-581.25 292.38,-581.25 292.38,-562.5 187.38,-562.5"/>
<text xml:space="preserve" text-anchor="start" x="190.38" y="-566.85" font-family="Roboto" font-size="12.00">revocation_reason</text>
<polygon fill="#bbdefb" stroke="none" points="292.38,-562.5 292.38,-581.25 402.62,-581.25 402.62,-562.5 292.38,-562.5"/>
<polygon fill="none" stroke="black" points="292.38,-562.5 292.38,-581.25 402.62,-581.25 402.62,-562.5 292.38,-562.5"/>
<text xml:space="preserve" text-anchor="start" x="295.38" y="-566.85" font-family="Roboto" font-size="12.00">VARCHAR(1024) ()</text>
</a>
</g>
</g>
<!-- BiocommonsUser&#45;&gt;PlatformMembership -->
<g id="edge1" class="edge">
<title>BiocommonsUser&#45;&gt;PlatformMembership</title>
<g id="a_edge1"><a xlink:title="Relation between BiocommonsUser and PlatformMembership">
<path fill="none" stroke="#1e88e5" stroke-dasharray="5,2" d="M252.87,-763.86C256.86,-752 261.13,-739.3 265.36,-726.71"/>
<polygon fill="#1e88e5" stroke="#1e88e5" points="268.55,-728.2 268.42,-717.6 261.91,-725.97 268.55,-728.2"/>
</a>
</g>
<text xml:space="preserve" text-anchor="middle" x="311.64" y="-736.25" font-family="Roboto" font-size="10.00">platform_memberships</text>
</g>
<!-- GroupMembership -->
<g id="node3" class="node">
<title>GroupMembership</title>
<g id="a_node3"><a xlink:href="http://GroupMembership_details.html" xlink:title="&lt;TABLE&gt;">
<polygon fill="#3f51b5" stroke="none" points="45.38,-135.25 45.38,-154 260.62,-154 260.62,-135.25 45.38,-135.25"/>
<polygon fill="none" stroke="black" points="45.38,-135.25 45.38,-154 260.62,-154 260.62,-135.25 45.38,-135.25"/>
<text xml:space="preserve" text-anchor="start" x="103.5" y="-139.6" font-family="Roboto" font-size="12.00" fill="white">GroupMembership</text>
<polygon fill="#bbdefb" stroke="none" points="45.38,-116.5 45.38,-135.25 150.38,-135.25 150.38,-116.5 45.38,-116.5"/>
<polygon fill="none" stroke="black" points="45.38,-116.5 45.38,-135.25 150.38,-135.25 150.38,-116.5 45.38,-116.5"/>
<text xml:space="preserve" text-anchor="start" x="93" y="-120.85" font-family="Roboto" font-size="12.00">id</text>
<polygon fill="#bbdefb" stroke="none" points="150.38,-116.5 150.38,-135.25 260.62,-135.25 260.62,-116.5 150.38,-116.5"/>
<polygon fill="none" stroke="black" points="150.38,-116.5 150.38,-135.25 260.62,-135.25 260.62,-116.5 150.38,-116.5"/>
<text xml:space="preserve" text-anchor="start" x="163.88" y="-120.85" font-family="Roboto" font-size="12.00">CHAR(32) (PK)</text>
<polygon fill="#bbdefb" stroke="none" points="45.38,-97.75 45.38,-116.5 150.38,-116.5 150.38,-97.75 45.38,-97.75"/>
<polygon fill="none" stroke="black" points="45.38,-97.75 45.38,-116.5 150.38,-116.5 150.38,-97.75 45.38,-97.75"/>
<text xml:space="preserve" text-anchor="start" x="74.25" y="-102.1" font-family="Roboto" font-size="12.00">group_id</text>
<polygon fill="#bbdefb" stroke="none" points="150.38,-97.75 150.38,-116.5 260.62,-116.5 260.62,-97.75 150.38,-97.75"/>
<polygon fill="none" stroke="black" points="150.38,-97.75 150.38,-116.5 260.62,-116.5 260.62,-97.75 150.38,-97.75"/>
<text xml:space="preserve" text-anchor="start" x="170.62" y="-102.1" font-family="Roboto" font-size="12.00">VARCHAR ()</text>
<polygon fill="#bbdefb" stroke="none" points="45.38,-79 45.38,-97.75 150.38,-97.75 150.38,-79 45.38,-79"/>
<polygon fill="none" stroke="black" points="45.38,-79 45.38,-97.75 150.38,-97.75 150.38,-79 45.38,-79"/>
<text xml:space="preserve" text-anchor="start" x="78" y="-83.35" font-family="Roboto" font-size="12.00">user_id</text>
<polygon fill="#bbdefb" stroke="none" points="150.38,-79 150.38,-97.75 260.62,-97.75 260.62,-79 150.38,-79"/>
<polygon fill="none" stroke="black" points="150.38,-79 150.38,-97.75 260.62,-97.75 260.62,-79 150.38,-79"/>
<text xml:space="preserve" text-anchor="start" x="170.62" y="-83.35" font-family="Roboto" font-size="12.00">VARCHAR ()</text>
<polygon fill="#bbdefb" stroke="none" points="45.38,-60.25 45.38,-79 150.38,-79 150.38,-60.25 45.38,-60.25"/>
<polygon fill="none" stroke="black" points="45.38,-60.25 45.38,-79 150.38,-79 150.38,-60.25 45.38,-60.25"/>
<text xml:space="preserve" text-anchor="start" x="55.5" y="-64.6" font-family="Roboto" font-size="12.00">approval_status</text>
<polygon fill="#bbdefb" stroke="none" points="150.38,-60.25 150.38,-79 260.62,-79 260.62,-60.25 150.38,-60.25"/>
<polygon fill="none" stroke="black" points="150.38,-60.25 150.38,-79 260.62,-79 260.62,-60.25 150.38,-60.25"/>
<text xml:space="preserve" text-anchor="start" x="163.5" y="-64.6" font-family="Roboto" font-size="12.00">VARCHAR(8) ()</text>
<polygon fill="#bbdefb" stroke="none" points="45.38,-41.5 45.38,-60.25 150.38,-60.25 150.38,-41.5 45.38,-41.5"/>
<polygon fill="none" stroke="black" points="45.38,-41.5 45.38,-60.25 150.38,-60.25 150.38,-41.5 45.38,-41.5"/>
<text xml:space="preserve" text-anchor="start" x="67.88" y="-45.85" font-family="Roboto" font-size="12.00">updated_at</text>
<polygon fill="#bbdefb" stroke="none" points="150.38,-41.5 150.38,-60.25 260.62,-60.25 260.62,-41.5 150.38,-41.5"/>
<polygon fill="none" stroke="black" points="150.38,-41.5 150.38,-60.25 260.62,-60.25 260.62,-41.5 150.38,-41.5"/>
<text xml:space="preserve" text-anchor="start" x="170.25" y="-45.85" font-family="Roboto" font-size="12.00">DATETIME ()</text>
<polygon fill="#bbdefb" stroke="none" points="45.38,-22.75 45.38,-41.5 150.38,-41.5 150.38,-22.75 45.38,-22.75"/>
<polygon fill="none" stroke="black" points="45.38,-22.75 45.38,-41.5 150.38,-41.5 150.38,-22.75 45.38,-22.75"/>
<text xml:space="preserve" text-anchor="start" x="58.12" y="-27.1" font-family="Roboto" font-size="12.00">updated_by_id</text>
<polygon fill="#bbdefb" stroke="none" points="150.38,-22.75 150.38,-41.5 260.62,-41.5 260.62,-22.75 150.38,-22.75"/>
<polygon fill="none" stroke="black" points="150.38,-22.75 150.38,-41.5 260.62,-41.5 260.62,-22.75 150.38,-22.75"/>
<text xml:space="preserve" text-anchor="start" x="170.62" y="-27.1" font-family="Roboto" font-size="12.00">VARCHAR ()</text>
<polygon fill="#bbdefb" stroke="none" points="45.38,-4 45.38,-22.75 150.38,-22.75 150.38,-4 45.38,-4"/>
<polygon fill="none" stroke="black" points="45.38,-4 45.38,-22.75 150.38,-22.75 150.38,-4 45.38,-4"/>
<text xml:space="preserve" text-anchor="start" x="48.38" y="-8.35" font-family="Roboto" font-size="12.00">revocation_reason</text>
<polygon fill="#bbdefb" stroke="none" points="150.38,-4 150.38,-22.75 260.62,-22.75 260.62,-4 150.38,-4"/>
<polygon fill="none" stroke="black" points="150.38,-4 150.38,-22.75 260.62,-22.75 260.62,-4 150.38,-4"/>
<text xml:space="preserve" text-anchor="start" x="153.38" y="-8.35" font-family="Roboto" font-size="12.00">VARCHAR(1024) ()</text>
</a>
</g>
</g>
<!-- BiocommonsUser&#45;&gt;GroupMembership -->
<g id="edge2" class="edge">
<title>BiocommonsUser&#45;&gt;GroupMembership</title>
<g id="a_edge2"><a xlink:title="Relation between BiocommonsUser and GroupMembership">
<path fill="none" stroke="#1e88e5" stroke-dasharray="5,2" d="M127.41,-785.64C65.76,-756.36 0,-708.67 0,-638.5 232,0 232,0 0,-236.38 0,-208.83 12.27,-184.35 29.87,-163.4"/>
<polygon fill="#1e88e5" stroke="#1e88e5" points="32.37,-165.86 36.42,-156.07 27.15,-161.2 32.37,-165.86"/>
</a>
</g>
<text xml:space="preserve" text-anchor="middle" x="43.88" y="-419.5" font-family="Roboto" font-size="10.00">group_memberships</text>
</g>
<!-- PlatformMembership&#45;&gt;BiocommonsUser -->
<g id="edge15" class="edge">
<title>PlatformMembership&#45;&gt;BiocommonsUser</title>
<g id="a_edge15"><a xlink:title="Relation between PlatformMembership and BiocommonsUser">
<path fill="none" stroke="#1e88e5" stroke-dasharray="5,2" d="M368.78,-716.34C371.23,-726.14 370.53,-736.11 365,-745.75 360.21,-754.11 354.12,-761.65 347.2,-768.44"/>
<polygon fill="#1e88e5" stroke="#1e88e5" points="344.94,-765.77 339.85,-775.06 349.62,-770.97 344.94,-765.77"/>
</a>
</g>
<text xml:space="preserve" text-anchor="middle" x="378.15" y="-736.25" font-family="Roboto" font-size="10.00">user</text>
</g>
<!-- PlatformMembership&#45;&gt;BiocommonsUser -->
<g id="edge16" class="edge">
<title>PlatformMembership&#45;&gt;BiocommonsUser</title>
<g id="a_edge16"><a xlink:title="Relation between PlatformMembership and BiocommonsUser">
<path fill="none" stroke="#1e88e5" stroke-dasharray="5,2" d="M214.8,-716.3C211.28,-722.17 208.21,-728.25 205.75,-734.5 203.43,-740.39 202.48,-746.56 202.51,-752.79"/>
<polygon fill="#1e88e5" stroke="#1e88e5" points="199,-752.88 203.43,-762.51 205.97,-752.22 199,-752.88"/>
</a>
</g>
<text xml:space="preserve" text-anchor="middle" x="230.88" y="-736.25" font-family="Roboto" font-size="10.00">updated_by</text>
</g>
<!-- Platform -->
<g id="node7" class="node">
<title>Platform</title>
<g id="a_node7"><a xlink:href="http://Platform_details.html" xlink:title="&lt;TABLE&gt;">
<polygon fill="#3f51b5" stroke="none" points="197.38,-488.5 197.38,-507.25 388.62,-507.25 388.62,-488.5 197.38,-488.5"/>
<polygon fill="none" stroke="black" points="197.38,-488.5 197.38,-507.25 388.62,-507.25 388.62,-488.5 197.38,-488.5"/>
<text xml:space="preserve" text-anchor="start" x="270.88" y="-492.85" font-family="Roboto" font-size="12.00" fill="white">Platform</text>
<polygon fill="#bbdefb" stroke="none" points="197.38,-469.75 197.38,-488.5 233.38,-488.5 233.38,-469.75 197.38,-469.75"/>
<polygon fill="none" stroke="black" points="197.38,-469.75 197.38,-488.5 233.38,-488.5 233.38,-469.75 197.38,-469.75"/>
<text xml:space="preserve" text-anchor="start" x="210.5" y="-474.1" font-family="Roboto" font-size="12.00">id</text>
<polygon fill="#bbdefb" stroke="none" points="233.38,-469.75 233.38,-488.5 388.62,-488.5 388.62,-469.75 233.38,-469.75"/>
<polygon fill="none" stroke="black" points="233.38,-469.75 233.38,-488.5 388.62,-488.5 388.62,-469.75 233.38,-469.75"/>
<text xml:space="preserve" text-anchor="start" x="236.38" y="-474.1" font-family="Roboto" font-size="12.00">VARCHAR(15) (PK,Unique)</text>
<polygon fill="#bbdefb" stroke="none" points="197.38,-451 197.38,-469.75 233.38,-469.75 233.38,-451 197.38,-451"/>
<polygon fill="none" stroke="black" points="197.38,-451 197.38,-469.75 233.38,-469.75 233.38,-451 197.38,-451"/>
<text xml:space="preserve" text-anchor="start" x="200.38" y="-455.35" font-family="Roboto" font-size="12.00">name</text>
<polygon fill="#bbdefb" stroke="none" points="233.38,-451 233.38,-469.75 388.62,-469.75 388.62,-451 233.38,-451"/>
<polygon fill="none" stroke="black" points="233.38,-451 233.38,-469.75 388.62,-469.75 388.62,-451 233.38,-451"/>
<text xml:space="preserve" text-anchor="start" x="256.62" y="-455.35" font-family="Roboto" font-size="12.00">VARCHAR (Unique)</text>
</a>
</g>
</g>
<!-- PlatformMembership&#45;&gt;Platform -->
<g id="edge14" class="edge">
<title>PlatformMembership&#45;&gt;Platform</title>
<g id="a_edge14"><a xlink:title="Relation between PlatformMembership and Platform">
<path fill="none" stroke="#1e88e5" stroke-dasharray="5,2" d="M252.57,-558.78C251.07,-548.87 251.46,-538.84 254.75,-529.25 255.74,-526.38 256.97,-523.54 258.38,-520.78"/>
<polygon fill="#1e88e5" stroke="#1e88e5" points="261.26,-522.77 263.37,-512.38 255.25,-519.19 261.26,-522.77"/>
</a>
</g>
<text xml:space="preserve" text-anchor="middle" x="272.38" y="-531" font-family="Roboto" font-size="10.00">platform</text>
</g>
<!-- GroupMembership&#45;&gt;BiocommonsUser -->
<g id="edge7" class="edge">
<title>GroupMembership&#45;&gt;BiocommonsUser</title>
<g id="a_edge7"><a xlink:title="Relation between GroupMembership and BiocommonsUser">
<path fill="none" stroke="#1e88e5" stroke-dasharray="5,2" d="M123.6,-157.66C116.54,-182.45 111,-210.23 111,-236.38 232,0 232,0 111,-638.5 111,-687.55 110.72,-704.34 137,-745.75 139.01,-748.91 141.19,-752 143.51,-755.01"/>
<polygon fill="#1e88e5" stroke="#1e88e5" points="140.8,-757.23 149.89,-762.66 146.17,-752.74 140.8,-757.23"/>
</a>
</g>
<text xml:space="preserve" text-anchor="middle" x="120.38" y="-419.5" font-family="Roboto" font-size="10.00">user</text>
</g>
<!-- GroupMembership&#45;&gt;BiocommonsUser -->
<g id="edge8" class="edge">
<title>GroupMembership&#45;&gt;BiocommonsUser</title>
<g id="a_edge8"><a xlink:title="Relation between GroupMembership and BiocommonsUser">
<path fill="none" stroke="#1e88e5" stroke-dasharray="5,2" d="M153,-157.95C153,-182.99 153,-210.86 153,-236.38 232,0 232,0 153,-424.38 153,-554.43 132.04,-592.11 170,-716.5 173.87,-729.18 179.53,-741.94 185.91,-754"/>
<polygon fill="#1e88e5" stroke="#1e88e5" points="182.77,-755.56 190.67,-762.62 188.9,-752.17 182.77,-755.56"/>
</a>
</g>
<text xml:space="preserve" text-anchor="middle" x="178.12" y="-419.5" font-family="Roboto" font-size="10.00">updated_by</text>
</g>
<!-- BiocommonsGroup -->
<g id="node4" class="node">
<title>BiocommonsGroup</title>
<g id="a_node4"><a xlink:href="http://BiocommonsGroup_details.html" xlink:title="&lt;TABLE&gt;">
<polygon fill="#3f51b5" stroke="none" points="196.25,-246.75 196.25,-265.5 383.75,-265.5 383.75,-246.75 196.25,-246.75"/>
<polygon fill="none" stroke="black" points="196.25,-246.75 196.25,-265.5 383.75,-265.5 383.75,-246.75 196.25,-246.75"/>
<text xml:space="preserve" text-anchor="start" x="238.62" y="-251.1" font-family="Roboto" font-size="12.00" fill="white">BiocommonsGroup</text>
<polygon fill="#bbdefb" stroke="none" points="196.25,-228 196.25,-246.75 249.5,-246.75 249.5,-228 196.25,-228"/>
<polygon fill="none" stroke="black" points="196.25,-228 196.25,-246.75 249.5,-246.75 249.5,-228 196.25,-228"/>
<text xml:space="preserve" text-anchor="start" x="199.25" y="-232.35" font-family="Roboto" font-size="12.00">group_id</text>
<polygon fill="#bbdefb" stroke="none" points="249.5,-228 249.5,-246.75 383.75,-246.75 383.75,-228 249.5,-228"/>
<polygon fill="none" stroke="black" points="249.5,-228 249.5,-246.75 383.75,-246.75 383.75,-228 249.5,-228"/>
<text xml:space="preserve" text-anchor="start" x="252.5" y="-232.35" font-family="Roboto" font-size="12.00">VARCHAR (PK,Unique)</text>
<polygon fill="#bbdefb" stroke="none" points="196.25,-209.25 196.25,-228 249.5,-228 249.5,-209.25 196.25,-209.25"/>
<polygon fill="none" stroke="black" points="196.25,-209.25 196.25,-228 249.5,-228 249.5,-209.25 196.25,-209.25"/>
<text xml:space="preserve" text-anchor="start" x="207.88" y="-213.6" font-family="Roboto" font-size="12.00">name</text>
<polygon fill="#bbdefb" stroke="none" points="249.5,-209.25 249.5,-228 383.75,-228 383.75,-209.25 249.5,-209.25"/>
<polygon fill="none" stroke="black" points="249.5,-209.25 249.5,-228 383.75,-228 383.75,-209.25 249.5,-209.25"/>
<text xml:space="preserve" text-anchor="start" x="262.25" y="-213.6" font-family="Roboto" font-size="12.00">VARCHAR (Unique)</text>
</a>
</g>
</g>
<!-- GroupMembership&#45;&gt;BiocommonsGroup -->
<g id="edge6" class="edge">
<title>GroupMembership&#45;&gt;BiocommonsGroup</title>
<g id="a_edge6"><a xlink:title="Relation between GroupMembership and BiocommonsGroup">
<path fill="none" stroke="#1e88e5" stroke-dasharray="5,2" d="M187.86,-157.79C194.38,-168.32 201.77,-178.49 210,-187.25 213.71,-191.2 217.81,-194.95 222.13,-198.49"/>
<polygon fill="#1e88e5" stroke="#1e88e5" points="219.98,-201.25 230.05,-204.53 224.22,-195.69 219.98,-201.25"/>
</a>
</g>
<text xml:space="preserve" text-anchor="middle" x="222" y="-177.75" font-family="Roboto" font-size="10.00">group</text>
</g>
<!-- BiocommonsGroup&#45;&gt;GroupMembership -->
<g id="edge4" class="edge">
<title>BiocommonsGroup&#45;&gt;GroupMembership</title>
<g id="a_edge4"><a xlink:title="Relation between BiocommonsGroup and GroupMembership">
<path fill="none" stroke="#1e88e5" stroke-dasharray="5,2" d="M262.93,-205.48C252.83,-193.95 240.8,-180.22 228.46,-166.14"/>
<polygon fill="#1e88e5" stroke="#1e88e5" points="231.4,-164.17 222.18,-158.96 226.13,-168.79 231.4,-164.17"/>
</a>
</g>
<text xml:space="preserve" text-anchor="middle" x="265.94" y="-177.75" font-family="Roboto" font-size="10.00">members</text>
</g>
<!-- Auth0Role -->
<g id="node5" class="node">
<title>Auth0Role</title>
<g id="a_node5"><a xlink:href="http://Auth0Role_details.html" xlink:title="&lt;TABLE&gt;">
<polygon fill="#3f51b5" stroke="none" points="199.62,-377 199.62,-395.75 398.38,-395.75 398.38,-377 199.62,-377"/>
<polygon fill="none" stroke="black" points="199.62,-377 199.62,-395.75 398.38,-395.75 398.38,-377 199.62,-377"/>
<text xml:space="preserve" text-anchor="start" x="270.5" y="-381.35" font-family="Roboto" font-size="12.00" fill="white">Auth0Role</text>
<polygon fill="#bbdefb" stroke="none" points="199.62,-358.25 199.62,-377 264.12,-377 264.12,-358.25 199.62,-358.25"/>
<polygon fill="none" stroke="black" points="199.62,-358.25 199.62,-377 264.12,-377 264.12,-358.25 199.62,-358.25"/>
<text xml:space="preserve" text-anchor="start" x="227" y="-362.6" font-family="Roboto" font-size="12.00">id</text>
<polygon fill="#bbdefb" stroke="none" points="264.12,-358.25 264.12,-377 398.38,-377 398.38,-358.25 264.12,-358.25"/>
<polygon fill="none" stroke="black" points="264.12,-358.25 264.12,-377 398.38,-377 398.38,-358.25 264.12,-358.25"/>
<text xml:space="preserve" text-anchor="start" x="267.12" y="-362.6" font-family="Roboto" font-size="12.00">VARCHAR (PK,Unique)</text>
<polygon fill="#bbdefb" stroke="none" points="199.62,-339.5 199.62,-358.25 264.12,-358.25 264.12,-339.5 199.62,-339.5"/>
<polygon fill="none" stroke="black" points="199.62,-339.5 199.62,-358.25 264.12,-358.25 264.12,-339.5 199.62,-339.5"/>
<text xml:space="preserve" text-anchor="start" x="216.88" y="-343.85" font-family="Roboto" font-size="12.00">name</text>
<polygon fill="#bbdefb" stroke="none" points="264.12,-339.5 264.12,-358.25 398.38,-358.25 398.38,-339.5 264.12,-339.5"/>
<polygon fill="none" stroke="black" points="264.12,-339.5 264.12,-358.25 398.38,-358.25 398.38,-339.5 264.12,-339.5"/>
<text xml:space="preserve" text-anchor="start" x="296.38" y="-343.85" font-family="Roboto" font-size="12.00">VARCHAR ()</text>
<polygon fill="#bbdefb" stroke="none" points="199.62,-320.75 199.62,-339.5 264.12,-339.5 264.12,-320.75 199.62,-320.75"/>
<polygon fill="none" stroke="black" points="199.62,-320.75 199.62,-339.5 264.12,-339.5 264.12,-320.75 199.62,-320.75"/>
<text xml:space="preserve" text-anchor="start" x="202.62" y="-325.1" font-family="Roboto" font-size="12.00">description</text>
<polygon fill="#bbdefb" stroke="none" points="264.12,-320.75 264.12,-339.5 398.38,-339.5 398.38,-320.75 264.12,-320.75"/>
<polygon fill="none" stroke="black" points="264.12,-320.75 264.12,-339.5 398.38,-339.5 398.38,-320.75 264.12,-320.75"/>
<text xml:space="preserve" text-anchor="start" x="296.38" y="-325.1" font-family="Roboto" font-size="12.00">VARCHAR ()</text>
</a>
</g>
</g>
<!-- BiocommonsGroup&#45;&gt;Auth0Role -->
<g id="edge3" class="edge">
<title>BiocommonsGroup&#45;&gt;Auth0Role</title>
<g id="a_edge3"><a xlink:title="Relation between BiocommonsGroup and Auth0Role">
<path fill="none" stroke="#1e88e5" stroke-dasharray="5,2" d="M331.1,-269.4C335.92,-274.88 340.14,-280.95 343,-287.5 345.79,-293.89 345.93,-300.37 344.32,-306.68"/>
<polygon fill="#1e88e5" stroke="#1e88e5" points="341.18,-305.1 340.69,-315.68 347.68,-307.71 341.18,-305.1"/>
</a>
</g>
<text xml:space="preserve" text-anchor="middle" x="371.58" y="-289.25" font-family="Roboto" font-size="10.00">admin_roles</text>
</g>
<!-- GroupMembershipHistory -->
<g id="node6" class="node">
<title>GroupMembershipHistory</title>
<g id="a_node6"><a xlink:href="http://GroupMembershipHistory_details.html" xlink:title="&lt;TABLE&gt;">
<polygon fill="#3f51b5" stroke="none" points="316.5,-135.25 316.5,-154 517.5,-154 517.5,-135.25 316.5,-135.25"/>
<polygon fill="none" stroke="black" points="316.5,-135.25 316.5,-154 517.5,-154 517.5,-135.25 316.5,-135.25"/>
<text xml:space="preserve" text-anchor="start" x="348.75" y="-139.6" font-family="Roboto" font-size="12.00" fill="white">GroupMembershipHistory</text>
<polygon fill="#bbdefb" stroke="none" points="316.5,-116.5 316.5,-135.25 407.25,-135.25 407.25,-116.5 316.5,-116.5"/>
<polygon fill="none" stroke="black" points="316.5,-116.5 316.5,-135.25 407.25,-135.25 407.25,-116.5 316.5,-116.5"/>
<text xml:space="preserve" text-anchor="start" x="357" y="-120.85" font-family="Roboto" font-size="12.00">id</text>
<polygon fill="#bbdefb" stroke="none" points="407.25,-116.5 407.25,-135.25 517.5,-135.25 517.5,-116.5 407.25,-116.5"/>
<polygon fill="none" stroke="black" points="407.25,-116.5 407.25,-135.25 517.5,-135.25 517.5,-116.5 407.25,-116.5"/>
<text xml:space="preserve" text-anchor="start" x="420.75" y="-120.85" font-family="Roboto" font-size="12.00">CHAR(32) (PK)</text>
<polygon fill="#bbdefb" stroke="none" points="316.5,-97.75 316.5,-116.5 407.25,-116.5 407.25,-97.75 316.5,-97.75"/>
<polygon fill="none" stroke="black" points="316.5,-97.75 316.5,-116.5 407.25,-116.5 407.25,-97.75 316.5,-97.75"/>
<text xml:space="preserve" text-anchor="start" x="338.25" y="-102.1" font-family="Roboto" font-size="12.00">group_id</text>
<polygon fill="#bbdefb" stroke="none" points="407.25,-97.75 407.25,-116.5 517.5,-116.5 517.5,-97.75 407.25,-97.75"/>
<polygon fill="none" stroke="black" points="407.25,-97.75 407.25,-116.5 517.5,-116.5 517.5,-97.75 407.25,-97.75"/>
<text xml:space="preserve" text-anchor="start" x="427.5" y="-102.1" font-family="Roboto" font-size="12.00">VARCHAR ()</text>
<polygon fill="#bbdefb" stroke="none" points="316.5,-79 316.5,-97.75 407.25,-97.75 407.25,-79 316.5,-79"/>
<polygon fill="none" stroke="black" points="316.5,-79 316.5,-97.75 407.25,-97.75 407.25,-79 316.5,-79"/>
<text xml:space="preserve" text-anchor="start" x="342" y="-83.35" font-family="Roboto" font-size="12.00">user_id</text>
<polygon fill="#bbdefb" stroke="none" points="407.25,-79 407.25,-97.75 517.5,-97.75 517.5,-79 407.25,-79"/>
<polygon fill="none" stroke="black" points="407.25,-79 407.25,-97.75 517.5,-97.75 517.5,-79 407.25,-79"/>
<text xml:space="preserve" text-anchor="start" x="427.5" y="-83.35" font-family="Roboto" font-size="12.00">VARCHAR ()</text>
<polygon fill="#bbdefb" stroke="none" points="316.5,-60.25 316.5,-79 407.25,-79 407.25,-60.25 316.5,-60.25"/>
<polygon fill="none" stroke="black" points="316.5,-60.25 316.5,-79 407.25,-79 407.25,-60.25 316.5,-60.25"/>
<text xml:space="preserve" text-anchor="start" x="319.5" y="-64.6" font-family="Roboto" font-size="12.00">approval_status</text>
<polygon fill="#bbdefb" stroke="none" points="407.25,-60.25 407.25,-79 517.5,-79 517.5,-60.25 407.25,-60.25"/>
<polygon fill="none" stroke="black" points="407.25,-60.25 407.25,-79 517.5,-79 517.5,-60.25 407.25,-60.25"/>
<text xml:space="preserve" text-anchor="start" x="420.38" y="-64.6" font-family="Roboto" font-size="12.00">VARCHAR(8) ()</text>
<polygon fill="#bbdefb" stroke="none" points="316.5,-41.5 316.5,-60.25 407.25,-60.25 407.25,-41.5 316.5,-41.5"/>
<polygon fill="none" stroke="black" points="316.5,-41.5 316.5,-60.25 407.25,-60.25 407.25,-41.5 316.5,-41.5"/>
<text xml:space="preserve" text-anchor="start" x="331.88" y="-45.85" font-family="Roboto" font-size="12.00">updated_at</text>
<polygon fill="#bbdefb" stroke="none" points="407.25,-41.5 407.25,-60.25 517.5,-60.25 517.5,-41.5 407.25,-41.5"/>
<polygon fill="none" stroke="black" points="407.25,-41.5 407.25,-60.25 517.5,-60.25 517.5,-41.5 407.25,-41.5"/>
<text xml:space="preserve" text-anchor="start" x="427.12" y="-45.85" font-family="Roboto" font-size="12.00">DATETIME ()</text>
<polygon fill="#bbdefb" stroke="none" points="316.5,-22.75 316.5,-41.5 407.25,-41.5 407.25,-22.75 316.5,-22.75"/>
<polygon fill="none" stroke="black" points="316.5,-22.75 316.5,-41.5 407.25,-41.5 407.25,-22.75 316.5,-22.75"/>
<text xml:space="preserve" text-anchor="start" x="322.12" y="-27.1" font-family="Roboto" font-size="12.00">updated_by_id</text>
<polygon fill="#bbdefb" stroke="none" points="407.25,-22.75 407.25,-41.5 517.5,-41.5 517.5,-22.75 407.25,-22.75"/>
<polygon fill="none" stroke="black" points="407.25,-22.75 407.25,-41.5 517.5,-41.5 517.5,-22.75 407.25,-22.75"/>
<text xml:space="preserve" text-anchor="start" x="427.5" y="-27.1" font-family="Roboto" font-size="12.00">VARCHAR ()</text>
<polygon fill="#bbdefb" stroke="none" points="316.5,-4 316.5,-22.75 407.25,-22.75 407.25,-4 316.5,-4"/>
<polygon fill="none" stroke="black" points="316.5,-4 316.5,-22.75 407.25,-22.75 407.25,-4 316.5,-4"/>
<text xml:space="preserve" text-anchor="start" x="343.5" y="-8.35" font-family="Roboto" font-size="12.00">reason</text>
<polygon fill="#bbdefb" stroke="none" points="407.25,-4 407.25,-22.75 517.5,-22.75 517.5,-4 407.25,-4"/>
<polygon fill="none" stroke="black" points="407.25,-4 407.25,-22.75 517.5,-22.75 517.5,-4 407.25,-4"/>
<text xml:space="preserve" text-anchor="start" x="410.25" y="-8.35" font-family="Roboto" font-size="12.00">VARCHAR(1024) ()</text>
</a>
</g>
</g>
<!-- BiocommonsGroup&#45;&gt;GroupMembershipHistory -->
<g id="edge5" class="edge">
<title>BiocommonsGroup&#45;&gt;GroupMembershipHistory</title>
<g id="a_edge5"><a xlink:title="Relation between BiocommonsGroup and GroupMembershipHistory">
<path fill="none" stroke="#1e88e5" stroke-dasharray="5,2" d="M315.19,-205.46C320.1,-199.42 325.21,-193.14 330,-187.25 335.42,-180.58 341.03,-173.67 346.67,-166.73"/>
<polygon fill="#1e88e5" stroke="#1e88e5" points="349.28,-169.07 352.86,-159.1 343.84,-164.65 349.28,-169.07"/>
</a>
</g>
<text xml:space="preserve" text-anchor="middle" x="372.68" y="-177.75" font-family="Roboto" font-size="10.00">approval_history</text>
</g>
<!-- Auth0Role&#45;&gt;BiocommonsGroup -->
<g id="edge19" class="edge">
<title>Auth0Role&#45;&gt;BiocommonsGroup</title>
<g id="a_edge19"><a xlink:title="Relation between Auth0Role and BiocommonsGroup">
<path fill="none" stroke="#1e88e5" stroke-dasharray="5,2" d="M282.67,-316.81C280.84,-310.84 279.27,-304.7 278.25,-298.75 277.22,-292.76 277.23,-286.46 277.86,-280.27"/>
<polygon fill="#1e88e5" stroke="#1e88e5" points="281.25,-281.27 279.36,-270.85 274.33,-280.18 281.25,-281.27"/>
</a>
</g>
<text xml:space="preserve" text-anchor="middle" x="308.62" y="-289.25" font-family="Roboto" font-size="10.00">admin_groups</text>
</g>
<!-- Auth0Role&#45;&gt;Platform -->
<g id="edge20" class="edge">
<title>Auth0Role&#45;&gt;Platform</title>
<g id="a_edge20"><a xlink:title="Relation between Auth0Role and Platform">
<path fill="none" stroke="#1e88e5" stroke-dasharray="5,2" d="M296.97,-399.43C296.38,-411.13 295.73,-423.95 295.14,-435.78"/>
<polygon fill="#1e88e5" stroke="#1e88e5" points="291.65,-435.53 294.64,-445.69 298.64,-435.88 291.65,-435.53"/>
</a>
</g>
<text xml:space="preserve" text-anchor="middle" x="332" y="-419.5" font-family="Roboto" font-size="10.00">admin_platforms</text>
</g>
<!-- GroupMembershipHistory&#45;&gt;BiocommonsUser -->
<g id="edge10" class="edge">
<title>GroupMembershipHistory&#45;&gt;BiocommonsUser</title>
<g id="a_edge10"><a xlink:title="Relation between GroupMembershipHistory and BiocommonsUser">
<path fill="none" stroke="#1e88e5" stroke-dasharray="5,2" d="M432.28,-157.65C436.03,-182.68 439,-210.6 439,-236.38 232,0 232,0 439,-638.5 439,-690.54 434.06,-715.1 392,-745.75 378.57,-755.54 363.71,-764.64 348.63,-772.91"/>
<polygon fill="#1e88e5" stroke="#1e88e5" points="347.19,-769.7 340.03,-777.51 350.5,-775.88 347.19,-769.7"/>
</a>
</g>
<text xml:space="preserve" text-anchor="middle" x="448.38" y="-419.5" font-family="Roboto" font-size="10.00">user</text>
</g>
<!-- GroupMembershipHistory&#45;&gt;BiocommonsUser -->
<g id="edge11" class="edge">
<title>GroupMembershipHistory&#45;&gt;BiocommonsUser</title>
<g id="a_edge11"><a xlink:title="Relation between GroupMembershipHistory and BiocommonsUser">
<path fill="none" stroke="#1e88e5" stroke-dasharray="5,2" d="M462.49,-157.88C472.91,-182.21 481,-209.68 481,-236.38 232,0 232,0 481,-638.5 481,-710.2 413.45,-757.31 348.86,-785.97"/>
<polygon fill="#1e88e5" stroke="#1e88e5" points="347.73,-782.65 339.92,-789.82 350.49,-789.08 347.73,-782.65"/>
</a>
</g>
<text xml:space="preserve" text-anchor="middle" x="506.12" y="-419.5" font-family="Roboto" font-size="10.00">updated_by</text>
</g>
<!-- GroupMembershipHistory&#45;&gt;BiocommonsGroup -->
<g id="edge9" class="edge">
<title>GroupMembershipHistory&#45;&gt;BiocommonsGroup</title>
<g id="a_edge9"><a xlink:title="Relation between GroupMembershipHistory and BiocommonsGroup">
<path fill="none" stroke="#1e88e5" stroke-dasharray="5,2" d="M314.67,-157.9C310,-163.7 305.72,-169.74 302,-176 298.65,-181.65 296.21,-188.07 294.45,-194.57"/>
<polygon fill="#1e88e5" stroke="#1e88e5" points="291.11,-193.45 292.39,-203.96 297.95,-194.94 291.11,-193.45"/>
</a>
</g>
<text xml:space="preserve" text-anchor="middle" x="314" y="-177.75" font-family="Roboto" font-size="10.00">group</text>
</g>
<!-- Platform&#45;&gt;PlatformMembership -->
<g id="edge13" class="edge">
<title>Platform&#45;&gt;PlatformMembership</title>
<g id="a_edge13"><a xlink:title="Relation between Platform and PlatformMembership">
<path fill="none" stroke="#1e88e5" stroke-dasharray="5,2" d="M293.4,-511.23C293.53,-521.89 293.69,-534.41 293.86,-547.34"/>
<polygon fill="#1e88e5" stroke="#1e88e5" points="290.36,-547.3 293.99,-557.26 297.36,-547.21 290.36,-547.3"/>
</a>
</g>
<text xml:space="preserve" text-anchor="middle" x="314.01" y="-531" font-family="Roboto" font-size="10.00">members</text>
</g>
<!-- Platform&#45;&gt;Auth0Role -->
<g id="edge12" class="edge">
<title>Platform&#45;&gt;Auth0Role</title>
<g id="a_edge12"><a xlink:title="Relation between Platform and Auth0Role">
<path fill="none" stroke="#1e88e5" stroke-dasharray="5,2" d="M238.71,-447.19C230.67,-438.62 226.53,-428.64 231.5,-417.75 232.94,-414.61 234.63,-411.57 236.53,-408.64"/>
<polygon fill="#1e88e5" stroke="#1e88e5" points="239.15,-410.98 242.33,-400.88 233.54,-406.79 239.15,-410.98"/>
</a>
</g>
<text xml:space="preserve" text-anchor="middle" x="257.75" y="-419.5" font-family="Roboto" font-size="10.00">admin_roles</text>
</g>
<!-- PlatformMembershipHistory -->
<g id="node8" class="node">
<title>PlatformMembershipHistory</title>
<g id="a_node8"><a xlink:href="http://PlatformMembershipHistory_details.html" xlink:title="&lt;TABLE&gt;">
<polygon fill="#3f51b5" stroke="none" points="132.5,-1066.75 132.5,-1085.5 333.5,-1085.5 333.5,-1066.75 132.5,-1066.75"/>
<polygon fill="none" stroke="black" points="132.5,-1066.75 132.5,-1085.5 333.5,-1085.5 333.5,-1066.75 132.5,-1066.75"/>
<text xml:space="preserve" text-anchor="start" x="159.12" y="-1071.1" font-family="Roboto" font-size="12.00" fill="white">PlatformMembershipHistory</text>
<polygon fill="#bbdefb" stroke="none" points="132.5,-1048 132.5,-1066.75 223.25,-1066.75 223.25,-1048 132.5,-1048"/>
<polygon fill="none" stroke="black" points="132.5,-1048 132.5,-1066.75 223.25,-1066.75 223.25,-1048 132.5,-1048"/>
<text xml:space="preserve" text-anchor="start" x="173" y="-1052.35" font-family="Roboto" font-size="12.00">id</text>
<polygon fill="#bbdefb" stroke="none" points="223.25,-1048 223.25,-1066.75 333.5,-1066.75 333.5,-1048 223.25,-1048"/>
<polygon fill="none" stroke="black" points="223.25,-1048 223.25,-1066.75 333.5,-1066.75 333.5,-1048 223.25,-1048"/>
<text xml:space="preserve" text-anchor="start" x="236.75" y="-1052.35" font-family="Roboto" font-size="12.00">CHAR(32) (PK)</text>
<polygon fill="#bbdefb" stroke="none" points="132.5,-1029.25 132.5,-1048 223.25,-1048 223.25,-1029.25 132.5,-1029.25"/>
<polygon fill="none" stroke="black" points="132.5,-1029.25 132.5,-1048 223.25,-1048 223.25,-1029.25 132.5,-1029.25"/>
<text xml:space="preserve" text-anchor="start" x="148.25" y="-1033.6" font-family="Roboto" font-size="12.00">platform_id</text>
<polygon fill="#bbdefb" stroke="none" points="223.25,-1029.25 223.25,-1048 333.5,-1048 333.5,-1029.25 223.25,-1029.25"/>
<polygon fill="none" stroke="black" points="223.25,-1029.25 223.25,-1048 333.5,-1048 333.5,-1029.25 223.25,-1029.25"/>
<text xml:space="preserve" text-anchor="start" x="233" y="-1033.6" font-family="Roboto" font-size="12.00">VARCHAR(15) ()</text>
<polygon fill="#bbdefb" stroke="none" points="132.5,-1010.5 132.5,-1029.25 223.25,-1029.25 223.25,-1010.5 132.5,-1010.5"/>
<polygon fill="none" stroke="black" points="132.5,-1010.5 132.5,-1029.25 223.25,-1029.25 223.25,-1010.5 132.5,-1010.5"/>
<text xml:space="preserve" text-anchor="start" x="158" y="-1014.85" font-family="Roboto" font-size="12.00">user_id</text>
<polygon fill="#bbdefb" stroke="none" points="223.25,-1010.5 223.25,-1029.25 333.5,-1029.25 333.5,-1010.5 223.25,-1010.5"/>
<polygon fill="none" stroke="black" points="223.25,-1010.5 223.25,-1029.25 333.5,-1029.25 333.5,-1010.5 223.25,-1010.5"/>
<text xml:space="preserve" text-anchor="start" x="243.5" y="-1014.85" font-family="Roboto" font-size="12.00">VARCHAR ()</text>
<polygon fill="#bbdefb" stroke="none" points="132.5,-991.75 132.5,-1010.5 223.25,-1010.5 223.25,-991.75 132.5,-991.75"/>
<polygon fill="none" stroke="black" points="132.5,-991.75 132.5,-1010.5 223.25,-1010.5 223.25,-991.75 132.5,-991.75"/>
<text xml:space="preserve" text-anchor="start" x="135.5" y="-996.1" font-family="Roboto" font-size="12.00">approval_status</text>
<polygon fill="#bbdefb" stroke="none" points="223.25,-991.75 223.25,-1010.5 333.5,-1010.5 333.5,-991.75 223.25,-991.75"/>
<polygon fill="none" stroke="black" points="223.25,-991.75 223.25,-1010.5 333.5,-1010.5 333.5,-991.75 223.25,-991.75"/>
<text xml:space="preserve" text-anchor="start" x="236.38" y="-996.1" font-family="Roboto" font-size="12.00">VARCHAR(8) ()</text>
<polygon fill="#bbdefb" stroke="none" points="132.5,-973 132.5,-991.75 223.25,-991.75 223.25,-973 132.5,-973"/>
<polygon fill="none" stroke="black" points="132.5,-973 132.5,-991.75 223.25,-991.75 223.25,-973 132.5,-973"/>
<text xml:space="preserve" text-anchor="start" x="147.88" y="-977.35" font-family="Roboto" font-size="12.00">updated_at</text>
<polygon fill="#bbdefb" stroke="none" points="223.25,-973 223.25,-991.75 333.5,-991.75 333.5,-973 223.25,-973"/>
<polygon fill="none" stroke="black" points="223.25,-973 223.25,-991.75 333.5,-991.75 333.5,-973 223.25,-973"/>
<text xml:space="preserve" text-anchor="start" x="243.12" y="-977.35" font-family="Roboto" font-size="12.00">DATETIME ()</text>
<polygon fill="#bbdefb" stroke="none" points="132.5,-954.25 132.5,-973 223.25,-973 223.25,-954.25 132.5,-954.25"/>
<polygon fill="none" stroke="black" points="132.5,-954.25 132.5,-973 223.25,-973 223.25,-954.25 132.5,-954.25"/>
<text xml:space="preserve" text-anchor="start" x="138.12" y="-958.6" font-family="Roboto" font-size="12.00">updated_by_id</text>
<polygon fill="#bbdefb" stroke="none" points="223.25,-954.25 223.25,-973 333.5,-973 333.5,-954.25 223.25,-954.25"/>
<polygon fill="none" stroke="black" points="223.25,-954.25 223.25,-973 333.5,-973 333.5,-954.25 223.25,-954.25"/>
<text xml:space="preserve" text-anchor="start" x="243.5" y="-958.6" font-family="Roboto" font-size="12.00">VARCHAR ()</text>
<polygon fill="#bbdefb" stroke="none" points="132.5,-935.5 132.5,-954.25 223.25,-954.25 223.25,-935.5 132.5,-935.5"/>
<polygon fill="none" stroke="black" points="132.5,-935.5 132.5,-954.25 223.25,-954.25 223.25,-935.5 132.5,-935.5"/>
<text xml:space="preserve" text-anchor="start" x="159.5" y="-939.85" font-family="Roboto" font-size="12.00">reason</text>
<polygon fill="#bbdefb" stroke="none" points="223.25,-935.5 223.25,-954.25 333.5,-954.25 333.5,-935.5 223.25,-935.5"/>
<polygon fill="none" stroke="black" points="223.25,-935.5 223.25,-954.25 333.5,-954.25 333.5,-935.5 223.25,-935.5"/>
<text xml:space="preserve" text-anchor="start" x="226.25" y="-939.85" font-family="Roboto" font-size="12.00">VARCHAR(1024) ()</text>
</a>
</g>
</g>
<!-- PlatformMembershipHistory&#45;&gt;BiocommonsUser -->
<g id="edge17" class="edge">
<title>PlatformMembershipHistory&#45;&gt;BiocommonsUser</title>
<g id="a_edge17"><a xlink:title="Relation between PlatformMembershipHistory and BiocommonsUser">
<path fill="none" stroke="#1e88e5" stroke-dasharray="5,2" d="M212.97,-931.75C212.1,-921.85 212.04,-911.83 213.25,-902.25 213.54,-899.94 213.88,-897.61 214.25,-895.25"/>
<polygon fill="#1e88e5" stroke="#1e88e5" points="217.65,-896.13 216.01,-885.67 210.77,-894.88 217.65,-896.13"/>
</a>
</g>
<text xml:space="preserve" text-anchor="middle" x="222.62" y="-904" font-family="Roboto" font-size="10.00">user</text>
</g>
<!-- PlatformMembershipHistory&#45;&gt;BiocommonsUser -->
<g id="edge18" class="edge">
<title>PlatformMembershipHistory&#45;&gt;BiocommonsUser</title>
<g id="a_edge18"><a xlink:title="Relation between PlatformMembershipHistory and BiocommonsUser">
<path fill="none" stroke="#1e88e5" stroke-dasharray="5,2" d="M233,-931.52C233,-919.52 233,-907.19 233,-895.37"/>
<polygon fill="#1e88e5" stroke="#1e88e5" points="236.5,-895.74 233,-885.74 229.5,-895.74 236.5,-895.74"/>
</a>
</g>
<text xml:space="preserve" text-anchor="middle" x="258.12" y="-904" font-family="Roboto" font-size="10.00">updated_by</text>
</g>
</g>
</svg>
