<?xml version="1.0" encoding="UTF-8" standalone="no"?>
<!DOCTYPE svg PUBLIC "-//W3C//DTD SVG 1.1//EN"
 "http://www.w3.org/Graphics/SVG/1.1/DTD/svg11.dtd">
<!-- Generated by graphviz version 13.1.1 (20250719.2154)
 -->
<!-- Pages: 1 -->
<svg width="553pt" height="781pt"
 viewBox="0.00 0.00 553.00 781.00" xmlns="http://www.w3.org/2000/svg" xmlns:xlink="http://www.w3.org/1999/xlink">
<g id="graph0" class="graph" transform="scale(1 1) rotate(0) translate(4 776.75)">
<polygon fill="#eeeeee" stroke="none" points="-4,4 -4,-776.75 548.71,-776.75 548.71,4 -4,4"/>
<!-- BiocommonsUser -->
<g id="node1" class="node">
<title>BiocommonsUser</title>
<g id="a_node1"><a xlink:href="http://BiocommonsUser_details.html" xlink:title="&lt;TABLE&gt;">
<polygon fill="#3f51b5" stroke="none" points="209.83,-563.5 209.83,-582.25 386.83,-582.25 386.83,-563.5 209.83,-563.5"/>
<polygon fill="none" stroke="black" points="209.83,-563.5 209.83,-582.25 386.83,-582.25 386.83,-563.5 209.83,-563.5"/>
<text xml:space="preserve" text-anchor="start" x="250.71" y="-567.85" font-family="Roboto" font-size="12.00" fill="white">BiocommonsUser</text>
<polygon fill="#bbdefb" stroke="none" points="209.83,-544.75 209.83,-563.5 272.08,-563.5 272.08,-544.75 209.83,-544.75"/>
<polygon fill="none" stroke="black" points="209.83,-544.75 209.83,-563.5 272.08,-563.5 272.08,-544.75 209.83,-544.75"/>
<text xml:space="preserve" text-anchor="start" x="236.08" y="-549.1" font-family="Roboto" font-size="12.00">id</text>
<polygon fill="#bbdefb" stroke="none" points="272.08,-544.75 272.08,-563.5 386.83,-563.5 386.83,-544.75 272.08,-544.75"/>
<polygon fill="none" stroke="black" points="272.08,-544.75 272.08,-563.5 386.83,-563.5 386.83,-544.75 272.08,-544.75"/>
<text xml:space="preserve" text-anchor="start" x="286.33" y="-549.1" font-family="Roboto" font-size="12.00">VARCHAR (PK)</text>
<polygon fill="#bbdefb" stroke="none" points="209.83,-526 209.83,-544.75 272.08,-544.75 272.08,-526 209.83,-526"/>
<polygon fill="none" stroke="black" points="209.83,-526 209.83,-544.75 272.08,-544.75 272.08,-526 209.83,-526"/>
<text xml:space="preserve" text-anchor="start" x="226.33" y="-530.35" font-family="Roboto" font-size="12.00">email</text>
<polygon fill="#bbdefb" stroke="none" points="272.08,-526 272.08,-544.75 386.83,-544.75 386.83,-526 272.08,-526"/>
<polygon fill="none" stroke="black" points="272.08,-526 272.08,-544.75 386.83,-544.75 386.83,-526 272.08,-526"/>
<text xml:space="preserve" text-anchor="start" x="275.08" y="-530.35" font-family="Roboto" font-size="12.00">VARCHAR (Unique)</text>
<polygon fill="#bbdefb" stroke="none" points="209.83,-507.25 209.83,-526 272.08,-526 272.08,-507.25 209.83,-507.25"/>
<polygon fill="none" stroke="black" points="209.83,-507.25 209.83,-526 272.08,-526 272.08,-507.25 209.83,-507.25"/>
<text xml:space="preserve" text-anchor="start" x="214.33" y="-511.6" font-family="Roboto" font-size="12.00">username</text>
<polygon fill="#bbdefb" stroke="none" points="272.08,-507.25 272.08,-526 386.83,-526 386.83,-507.25 272.08,-507.25"/>
<polygon fill="none" stroke="black" points="272.08,-507.25 272.08,-526 386.83,-526 386.83,-507.25 272.08,-507.25"/>
<text xml:space="preserve" text-anchor="start" x="275.08" y="-511.6" font-family="Roboto" font-size="12.00">VARCHAR (Unique)</text>
<polygon fill="#bbdefb" stroke="none" points="209.83,-488.5 209.83,-507.25 272.08,-507.25 272.08,-488.5 209.83,-488.5"/>
<polygon fill="none" stroke="black" points="209.83,-488.5 209.83,-507.25 272.08,-507.25 272.08,-488.5 209.83,-488.5"/>
<text xml:space="preserve" text-anchor="start" x="212.83" y="-492.85" font-family="Roboto" font-size="12.00">created_at</text>
<polygon fill="#bbdefb" stroke="none" points="272.08,-488.5 272.08,-507.25 386.83,-507.25 386.83,-488.5 272.08,-488.5"/>
<polygon fill="none" stroke="black" points="272.08,-488.5 272.08,-507.25 386.83,-507.25 386.83,-488.5 272.08,-488.5"/>
<text xml:space="preserve" text-anchor="start" x="294.21" y="-492.85" font-family="Roboto" font-size="12.00">DATETIME ()</text>
</a>
</g>
</g>
<!-- PlatformMembership -->
<g id="node2" class="node">
<title>PlatformMembership</title>
<g id="a_node2"><a xlink:href="http://PlatformMembership_details.html" xlink:title="&lt;TABLE&gt;">
<polygon fill="#3f51b5" stroke="none" points="30.33,-414.5 30.33,-433.25 216.33,-433.25 216.33,-414.5 30.33,-414.5"/>
<polygon fill="none" stroke="black" points="30.33,-414.5 30.33,-433.25 216.33,-433.25 216.33,-414.5 30.33,-414.5"/>
<text xml:space="preserve" text-anchor="start" x="68.21" y="-418.85" font-family="Roboto" font-size="12.00" fill="white">PlatformMembership</text>
<polygon fill="#bbdefb" stroke="none" points="30.33,-395.75 30.33,-414.5 121.08,-414.5 121.08,-395.75 30.33,-395.75"/>
<polygon fill="none" stroke="black" points="30.33,-395.75 30.33,-414.5 121.08,-414.5 121.08,-395.75 30.33,-395.75"/>
<text xml:space="preserve" text-anchor="start" x="70.83" y="-400.1" font-family="Roboto" font-size="12.00">id</text>
<polygon fill="#bbdefb" stroke="none" points="121.08,-395.75 121.08,-414.5 216.33,-414.5 216.33,-395.75 121.08,-395.75"/>
<polygon fill="none" stroke="black" points="121.08,-395.75 121.08,-414.5 216.33,-414.5 216.33,-395.75 121.08,-395.75"/>
<text xml:space="preserve" text-anchor="start" x="127.08" y="-400.1" font-family="Roboto" font-size="12.00">CHAR(32) (PK)</text>
<polygon fill="#bbdefb" stroke="none" points="30.33,-377 30.33,-395.75 121.08,-395.75 121.08,-377 30.33,-377"/>
<polygon fill="none" stroke="black" points="30.33,-377 30.33,-395.75 121.08,-395.75 121.08,-377 30.33,-377"/>
<text xml:space="preserve" text-anchor="start" x="46.08" y="-381.35" font-family="Roboto" font-size="12.00">platform_id</text>
<polygon fill="#bbdefb" stroke="none" points="121.08,-377 121.08,-395.75 216.33,-395.75 216.33,-377 121.08,-377"/>
<polygon fill="none" stroke="black" points="121.08,-377 121.08,-395.75 216.33,-395.75 216.33,-377 121.08,-377"/>
<text xml:space="preserve" text-anchor="start" x="124.08" y="-381.35" font-family="Roboto" font-size="12.00">VARCHAR(11) ()</text>
<polygon fill="#bbdefb" stroke="none" points="30.33,-358.25 30.33,-377 121.08,-377 121.08,-358.25 30.33,-358.25"/>
<polygon fill="none" stroke="black" points="30.33,-358.25 30.33,-377 121.08,-377 121.08,-358.25 30.33,-358.25"/>
<text xml:space="preserve" text-anchor="start" x="55.83" y="-362.6" font-family="Roboto" font-size="12.00">user_id</text>
<polygon fill="#bbdefb" stroke="none" points="121.08,-358.25 121.08,-377 216.33,-377 216.33,-358.25 121.08,-358.25"/>
<polygon fill="none" stroke="black" points="121.08,-358.25 121.08,-377 216.33,-377 216.33,-358.25 121.08,-358.25"/>
<text xml:space="preserve" text-anchor="start" x="133.83" y="-362.6" font-family="Roboto" font-size="12.00">VARCHAR ()</text>
<polygon fill="#bbdefb" stroke="none" points="30.33,-339.5 30.33,-358.25 121.08,-358.25 121.08,-339.5 30.33,-339.5"/>
<polygon fill="none" stroke="black" points="30.33,-339.5 30.33,-358.25 121.08,-358.25 121.08,-339.5 30.33,-339.5"/>
<text xml:space="preserve" text-anchor="start" x="33.33" y="-343.85" font-family="Roboto" font-size="12.00">approval_status</text>
<polygon fill="#bbdefb" stroke="none" points="121.08,-339.5 121.08,-358.25 216.33,-358.25 216.33,-339.5 121.08,-339.5"/>
<polygon fill="none" stroke="black" points="121.08,-339.5 121.08,-358.25 216.33,-358.25 216.33,-339.5 121.08,-339.5"/>
<text xml:space="preserve" text-anchor="start" x="126.71" y="-343.85" font-family="Roboto" font-size="12.00">VARCHAR(8) ()</text>
<polygon fill="#bbdefb" stroke="none" points="30.33,-320.75 30.33,-339.5 121.08,-339.5 121.08,-320.75 30.33,-320.75"/>
<polygon fill="none" stroke="black" points="30.33,-320.75 30.33,-339.5 121.08,-339.5 121.08,-320.75 30.33,-320.75"/>
<text xml:space="preserve" text-anchor="start" x="45.71" y="-325.1" font-family="Roboto" font-size="12.00">updated_at</text>
<polygon fill="#bbdefb" stroke="none" points="121.08,-320.75 121.08,-339.5 216.33,-339.5 216.33,-320.75 121.08,-320.75"/>
<polygon fill="none" stroke="black" points="121.08,-320.75 121.08,-339.5 216.33,-339.5 216.33,-320.75 121.08,-320.75"/>
<text xml:space="preserve" text-anchor="start" x="133.46" y="-325.1" font-family="Roboto" font-size="12.00">DATETIME ()</text>
<polygon fill="#bbdefb" stroke="none" points="30.33,-302 30.33,-320.75 121.08,-320.75 121.08,-302 30.33,-302"/>
<polygon fill="none" stroke="black" points="30.33,-302 30.33,-320.75 121.08,-320.75 121.08,-302 30.33,-302"/>
<text xml:space="preserve" text-anchor="start" x="35.96" y="-306.35" font-family="Roboto" font-size="12.00">updated_by_id</text>
<polygon fill="#bbdefb" stroke="none" points="121.08,-302 121.08,-320.75 216.33,-320.75 216.33,-302 121.08,-302"/>
<polygon fill="none" stroke="black" points="121.08,-302 121.08,-320.75 216.33,-320.75 216.33,-302 121.08,-302"/>
<text xml:space="preserve" text-anchor="start" x="133.83" y="-306.35" font-family="Roboto" font-size="12.00">VARCHAR ()</text>
</a>
</g>
</g>
<!-- BiocommonsUser&#45;&gt;PlatformMembership -->
<g id="edge1" class="edge">
<title>BiocommonsUser&#45;&gt;PlatformMembership</title>
<g id="a_edge1"><a xlink:title="Relation between BiocommonsUser and PlatformMembership">
<path fill="none" stroke="#1e88e5" stroke-dasharray="5,2" d="M202.04,-524.73C126.95,-514.98 31.48,-496.93 7.33,-466.5 -5.31,-450.57 0.22,-435.34 14.11,-421.85"/>
<polygon fill="#1e88e5" stroke="#1e88e5" points="16.17,-424.69 21.48,-415.52 11.61,-419.38 16.17,-424.69"/>
</a>
</g>
<text xml:space="preserve" text-anchor="middle" x="56.83" y="-457" font-family="Roboto" font-size="10.00">platform_memberships</text>
</g>
<!-- GroupMembership -->
<g id="node3" class="node">
<title>GroupMembership</title>
<g id="a_node3"><a xlink:href="http://GroupMembership_details.html" xlink:title="&lt;TABLE&gt;">
<polygon fill="#3f51b5" stroke="none" points="249.96,-414.5 249.96,-433.25 430.71,-433.25 430.71,-414.5 249.96,-414.5"/>
<polygon fill="none" stroke="black" points="249.96,-414.5 249.96,-433.25 430.71,-433.25 430.71,-414.5 249.96,-414.5"/>
<text xml:space="preserve" text-anchor="start" x="290.83" y="-418.85" font-family="Roboto" font-size="12.00" fill="white">GroupMembership</text>
<polygon fill="#bbdefb" stroke="none" points="249.96,-395.75 249.96,-414.5 340.71,-414.5 340.71,-395.75 249.96,-395.75"/>
<polygon fill="none" stroke="black" points="249.96,-395.75 249.96,-414.5 340.71,-414.5 340.71,-395.75 249.96,-395.75"/>
<text xml:space="preserve" text-anchor="start" x="290.46" y="-400.1" font-family="Roboto" font-size="12.00">id</text>
<polygon fill="#bbdefb" stroke="none" points="340.71,-395.75 340.71,-414.5 430.71,-414.5 430.71,-395.75 340.71,-395.75"/>
<polygon fill="none" stroke="black" points="340.71,-395.75 340.71,-414.5 430.71,-414.5 430.71,-395.75 340.71,-395.75"/>
<text xml:space="preserve" text-anchor="start" x="344.08" y="-400.1" font-family="Roboto" font-size="12.00">CHAR(32) (PK)</text>
<polygon fill="#bbdefb" stroke="none" points="249.96,-377 249.96,-395.75 340.71,-395.75 340.71,-377 249.96,-377"/>
<polygon fill="none" stroke="black" points="249.96,-377 249.96,-395.75 340.71,-395.75 340.71,-377 249.96,-377"/>
<text xml:space="preserve" text-anchor="start" x="271.71" y="-381.35" font-family="Roboto" font-size="12.00">group_id</text>
<polygon fill="#bbdefb" stroke="none" points="340.71,-377 340.71,-395.75 430.71,-395.75 430.71,-377 340.71,-377"/>
<polygon fill="none" stroke="black" points="340.71,-377 340.71,-395.75 430.71,-395.75 430.71,-377 340.71,-377"/>
<text xml:space="preserve" text-anchor="start" x="350.83" y="-381.35" font-family="Roboto" font-size="12.00">VARCHAR ()</text>
<polygon fill="#bbdefb" stroke="none" points="249.96,-358.25 249.96,-377 340.71,-377 340.71,-358.25 249.96,-358.25"/>
<polygon fill="none" stroke="black" points="249.96,-358.25 249.96,-377 340.71,-377 340.71,-358.25 249.96,-358.25"/>
<text xml:space="preserve" text-anchor="start" x="275.46" y="-362.6" font-family="Roboto" font-size="12.00">user_id</text>
<polygon fill="#bbdefb" stroke="none" points="340.71,-358.25 340.71,-377 430.71,-377 430.71,-358.25 340.71,-358.25"/>
<polygon fill="none" stroke="black" points="340.71,-358.25 340.71,-377 430.71,-377 430.71,-358.25 340.71,-358.25"/>
<text xml:space="preserve" text-anchor="start" x="350.83" y="-362.6" font-family="Roboto" font-size="12.00">VARCHAR ()</text>
<polygon fill="#bbdefb" stroke="none" points="249.96,-339.5 249.96,-358.25 340.71,-358.25 340.71,-339.5 249.96,-339.5"/>
<polygon fill="none" stroke="black" points="249.96,-339.5 249.96,-358.25 340.71,-358.25 340.71,-339.5 249.96,-339.5"/>
<text xml:space="preserve" text-anchor="start" x="252.96" y="-343.85" font-family="Roboto" font-size="12.00">approval_status</text>
<polygon fill="#bbdefb" stroke="none" points="340.71,-339.5 340.71,-358.25 430.71,-358.25 430.71,-339.5 340.71,-339.5"/>
<polygon fill="none" stroke="black" points="340.71,-339.5 340.71,-358.25 430.71,-358.25 430.71,-339.5 340.71,-339.5"/>
<text xml:space="preserve" text-anchor="start" x="343.71" y="-343.85" font-family="Roboto" font-size="12.00">VARCHAR(8) ()</text>
<polygon fill="#bbdefb" stroke="none" points="249.96,-320.75 249.96,-339.5 340.71,-339.5 340.71,-320.75 249.96,-320.75"/>
<polygon fill="none" stroke="black" points="249.96,-320.75 249.96,-339.5 340.71,-339.5 340.71,-320.75 249.96,-320.75"/>
<text xml:space="preserve" text-anchor="start" x="265.33" y="-325.1" font-family="Roboto" font-size="12.00">updated_at</text>
<polygon fill="#bbdefb" stroke="none" points="340.71,-320.75 340.71,-339.5 430.71,-339.5 430.71,-320.75 340.71,-320.75"/>
<polygon fill="none" stroke="black" points="340.71,-320.75 340.71,-339.5 430.71,-339.5 430.71,-320.75 340.71,-320.75"/>
<text xml:space="preserve" text-anchor="start" x="350.46" y="-325.1" font-family="Roboto" font-size="12.00">DATETIME ()</text>
<polygon fill="#bbdefb" stroke="none" points="249.96,-302 249.96,-320.75 340.71,-320.75 340.71,-302 249.96,-302"/>
<polygon fill="none" stroke="black" points="249.96,-302 249.96,-320.75 340.71,-320.75 340.71,-302 249.96,-302"/>
<text xml:space="preserve" text-anchor="start" x="255.58" y="-306.35" font-family="Roboto" font-size="12.00">updated_by_id</text>
<polygon fill="#bbdefb" stroke="none" points="340.71,-302 340.71,-320.75 430.71,-320.75 430.71,-302 340.71,-302"/>
<polygon fill="none" stroke="black" points="340.71,-302 340.71,-320.75 430.71,-320.75 430.71,-302 340.71,-302"/>
<text xml:space="preserve" text-anchor="start" x="350.83" y="-306.35" font-family="Roboto" font-size="12.00">VARCHAR ()</text>
</a>
</g>
</g>
<!-- BiocommonsUser&#45;&gt;GroupMembership -->
<g id="edge2" class="edge">
<title>BiocommonsUser&#45;&gt;GroupMembership</title>
<g id="a_edge2"><a xlink:title="Relation between BiocommonsUser and GroupMembership">
<path fill="none" stroke="#1e88e5" stroke-dasharray="5,2" d="M246.11,-484.87C241.55,-475.38 240.14,-465.27 244.58,-455.25 245.9,-452.27 247.38,-449.35 249,-446.5"/>
<polygon fill="#1e88e5" stroke="#1e88e5" points="251.79,-448.63 254.18,-438.31 245.88,-444.89 251.79,-448.63"/>
</a>
</g>
<text xml:space="preserve" text-anchor="middle" x="288.46" y="-457" font-family="Roboto" font-size="10.00">group_memberships</text>
</g>
<!-- PlatformMembership&#45;&gt;BiocommonsUser -->
<g id="edge12" class="edge">
<title>PlatformMembership&#45;&gt;BiocommonsUser</title>
<g id="a_edge12"><a xlink:title="Relation between PlatformMembership and BiocommonsUser">
<path fill="none" stroke="#1e88e5" stroke-dasharray="5,2" d="M117.96,-437.07C119.78,-447.63 123.35,-457.88 129.58,-466.5 144.73,-487.45 167.46,-501.95 191.36,-511.97"/>
<polygon fill="#1e88e5" stroke="#1e88e5" points="190.03,-515.21 200.62,-515.58 192.57,-508.68 190.03,-515.21"/>
</a>
</g>
<text xml:space="preserve" text-anchor="middle" x="138.96" y="-457" font-family="Roboto" font-size="10.00">user</text>
</g>
<!-- PlatformMembership&#45;&gt;BiocommonsUser -->
<g id="edge13" class="edge">
<title>PlatformMembership&#45;&gt;BiocommonsUser</title>
<g id="a_edge13"><a xlink:title="Relation between PlatformMembership and BiocommonsUser">
<path fill="none" stroke="#1e88e5" stroke-dasharray="5,2" d="M163.08,-437.18C170.66,-447.61 179.08,-457.79 188.08,-466.5 191.97,-470.26 196.09,-473.91 200.38,-477.44"/>
<polygon fill="#1e88e5" stroke="#1e88e5" points="198.18,-480.16 208.2,-483.58 202.5,-474.65 198.18,-480.16"/>
</a>
</g>
<text xml:space="preserve" text-anchor="middle" x="213.21" y="-457" font-family="Roboto" font-size="10.00">updated_by</text>
</g>
<!-- GroupMembership&#45;&gt;BiocommonsUser -->
<g id="edge7" class="edge">
<title>GroupMembership&#45;&gt;BiocommonsUser</title>
<g id="a_edge7"><a xlink:title="Relation between GroupMembership and BiocommonsUser">
<path fill="none" stroke="#1e88e5" stroke-dasharray="5,2" d="M338.09,-437.14C336.8,-447.1 334.95,-457.14 332.33,-466.5 331.61,-469.07 330.79,-471.66 329.9,-474.25"/>
<polygon fill="#1e88e5" stroke="#1e88e5" points="326.69,-472.83 326.36,-483.42 333.22,-475.35 326.69,-472.83"/>
</a>
</g>
<text xml:space="preserve" text-anchor="middle" x="344.24" y="-457" font-family="Roboto" font-size="10.00">user</text>
</g>
<!-- GroupMembership&#45;&gt;BiocommonsUser -->
<g id="edge8" class="edge">
<title>GroupMembership&#45;&gt;BiocommonsUser</title>
<g id="a_edge8"><a xlink:title="Relation between GroupMembership and BiocommonsUser">
<path fill="none" stroke="#1e88e5" stroke-dasharray="5,2" d="M361.41,-437.15C361.86,-447.16 360.8,-457.21 357.33,-466.5 356.27,-469.35 355.02,-472.16 353.63,-474.92"/>
<polygon fill="#1e88e5" stroke="#1e88e5" points="350.73,-472.94 348.77,-483.35 356.8,-476.43 350.73,-472.94"/>
</a>
</g>
<text xml:space="preserve" text-anchor="middle" x="385.29" y="-457" font-family="Roboto" font-size="10.00">updated_by</text>
</g>
<!-- BiocommonsGroup -->
<g id="node4" class="node">
<title>BiocommonsGroup</title>
<g id="a_node4"><a xlink:href="http://BiocommonsGroup_details.html" xlink:title="&lt;TABLE&gt;">
<polygon fill="#3f51b5" stroke="none" points="229.58,-228 229.58,-246.75 417.08,-246.75 417.08,-228 229.58,-228"/>
<polygon fill="none" stroke="black" points="229.58,-228 229.58,-246.75 417.08,-246.75 417.08,-228 229.58,-228"/>
<text xml:space="preserve" text-anchor="start" x="271.96" y="-232.35" font-family="Roboto" font-size="12.00" fill="white">BiocommonsGroup</text>
<polygon fill="#bbdefb" stroke="none" points="229.58,-209.25 229.58,-228 282.83,-228 282.83,-209.25 229.58,-209.25"/>
<polygon fill="none" stroke="black" points="229.58,-209.25 229.58,-228 282.83,-228 282.83,-209.25 229.58,-209.25"/>
<text xml:space="preserve" text-anchor="start" x="232.58" y="-213.6" font-family="Roboto" font-size="12.00">group_id</text>
<polygon fill="#bbdefb" stroke="none" points="282.83,-209.25 282.83,-228 417.08,-228 417.08,-209.25 282.83,-209.25"/>
<polygon fill="none" stroke="black" points="282.83,-209.25 282.83,-228 417.08,-228 417.08,-209.25 282.83,-209.25"/>
<text xml:space="preserve" text-anchor="start" x="285.83" y="-213.6" font-family="Roboto" font-size="12.00">VARCHAR (PK,Unique)</text>
<polygon fill="#bbdefb" stroke="none" points="229.58,-190.5 229.58,-209.25 282.83,-209.25 282.83,-190.5 229.58,-190.5"/>
<polygon fill="none" stroke="black" points="229.58,-190.5 229.58,-209.25 282.83,-209.25 282.83,-190.5 229.58,-190.5"/>
<text xml:space="preserve" text-anchor="start" x="241.21" y="-194.85" font-family="Roboto" font-size="12.00">name</text>
<polygon fill="#bbdefb" stroke="none" points="282.83,-190.5 282.83,-209.25 417.08,-209.25 417.08,-190.5 282.83,-190.5"/>
<polygon fill="none" stroke="black" points="282.83,-190.5 282.83,-209.25 417.08,-209.25 417.08,-190.5 282.83,-190.5"/>
<text xml:space="preserve" text-anchor="start" x="295.58" y="-194.85" font-family="Roboto" font-size="12.00">VARCHAR (Unique)</text>
</a>
</g>
</g>
<!-- GroupMembership&#45;&gt;BiocommonsGroup -->
<g id="edge6" class="edge">
<title>GroupMembership&#45;&gt;BiocommonsGroup</title>
<g id="a_edge6"><a xlink:title="Relation between GroupMembership and BiocommonsGroup">
<path fill="none" stroke="#1e88e5" stroke-dasharray="5,2" d="M306.35,-298C304.34,-292.02 302.61,-285.97 301.33,-280 300.01,-273.86 300.34,-267.51 301.65,-261.33"/>
<polygon fill="#1e88e5" stroke="#1e88e5" points="304.94,-262.51 304.48,-251.93 298.24,-260.49 304.94,-262.51"/>
</a>
</g>
<text xml:space="preserve" text-anchor="middle" x="313.33" y="-270.5" font-family="Roboto" font-size="10.00">group</text>
</g>
<!-- BiocommonsGroup&#45;&gt;GroupMembership -->
<g id="edge4" class="edge">
<title>BiocommonsGroup&#45;&gt;GroupMembership</title>
<g id="a_edge4"><a xlink:title="Relation between BiocommonsGroup and GroupMembership">
<path fill="none" stroke="#1e88e5" stroke-dasharray="5,2" d="M326.93,-250.73C328.17,-261.49 329.63,-274.1 331.12,-286.96"/>
<polygon fill="#1e88e5" stroke="#1e88e5" points="327.63,-287.25 332.26,-296.79 334.58,-286.45 327.63,-287.25"/>
</a>
</g>
<text xml:space="preserve" text-anchor="middle" x="350.56" y="-270.5" font-family="Roboto" font-size="10.00">members</text>
</g>
<!-- Auth0Role -->
<g id="node5" class="node">
<title>Auth0Role</title>
<g id="a_node5"><a xlink:href="http://Auth0Role_details.html" xlink:title="&lt;TABLE&gt;">
<polygon fill="#3f51b5" stroke="none" points="107.96,-88.38 107.96,-107.12 306.71,-107.12 306.71,-88.38 107.96,-88.38"/>
<polygon fill="none" stroke="black" points="107.96,-88.38 107.96,-107.12 306.71,-107.12 306.71,-88.38 107.96,-88.38"/>
<text xml:space="preserve" text-anchor="start" x="178.83" y="-92.72" font-family="Roboto" font-size="12.00" fill="white">Auth0Role</text>
<polygon fill="#bbdefb" stroke="none" points="107.96,-69.62 107.96,-88.38 172.46,-88.38 172.46,-69.62 107.96,-69.62"/>
<polygon fill="none" stroke="black" points="107.96,-69.62 107.96,-88.38 172.46,-88.38 172.46,-69.62 107.96,-69.62"/>
<text xml:space="preserve" text-anchor="start" x="135.33" y="-73.97" font-family="Roboto" font-size="12.00">id</text>
<polygon fill="#bbdefb" stroke="none" points="172.46,-69.62 172.46,-88.38 306.71,-88.38 306.71,-69.62 172.46,-69.62"/>
<polygon fill="none" stroke="black" points="172.46,-69.62 172.46,-88.38 306.71,-88.38 306.71,-69.62 172.46,-69.62"/>
<text xml:space="preserve" text-anchor="start" x="175.46" y="-73.97" font-family="Roboto" font-size="12.00">VARCHAR (PK,Unique)</text>
<polygon fill="#bbdefb" stroke="none" points="107.96,-50.88 107.96,-69.62 172.46,-69.62 172.46,-50.88 107.96,-50.88"/>
<polygon fill="none" stroke="black" points="107.96,-50.88 107.96,-69.62 172.46,-69.62 172.46,-50.88 107.96,-50.88"/>
<text xml:space="preserve" text-anchor="start" x="125.21" y="-55.23" font-family="Roboto" font-size="12.00">name</text>
<polygon fill="#bbdefb" stroke="none" points="172.46,-50.88 172.46,-69.62 306.71,-69.62 306.71,-50.88 172.46,-50.88"/>
<polygon fill="none" stroke="black" points="172.46,-50.88 172.46,-69.62 306.71,-69.62 306.71,-50.88 172.46,-50.88"/>
<text xml:space="preserve" text-anchor="start" x="204.71" y="-55.23" font-family="Roboto" font-size="12.00">VARCHAR ()</text>
<polygon fill="#bbdefb" stroke="none" points="107.96,-32.12 107.96,-50.88 172.46,-50.88 172.46,-32.12 107.96,-32.12"/>
<polygon fill="none" stroke="black" points="107.96,-32.12 107.96,-50.88 172.46,-50.88 172.46,-32.12 107.96,-32.12"/>
<text xml:space="preserve" text-anchor="start" x="110.96" y="-36.48" font-family="Roboto" font-size="12.00">description</text>
<polygon fill="#bbdefb" stroke="none" points="172.46,-32.12 172.46,-50.88 306.71,-50.88 306.71,-32.12 172.46,-32.12"/>
<polygon fill="none" stroke="black" points="172.46,-32.12 172.46,-50.88 306.71,-50.88 306.71,-32.12 172.46,-32.12"/>
<text xml:space="preserve" text-anchor="start" x="204.71" y="-36.48" font-family="Roboto" font-size="12.00">VARCHAR ()</text>
</a>
</g>
</g>
<!-- BiocommonsGroup&#45;&gt;Auth0Role -->
<g id="edge3" class="edge">
<title>BiocommonsGroup&#45;&gt;Auth0Role</title>
<g id="a_edge3"><a xlink:title="Relation between BiocommonsGroup and Auth0Role">
<path fill="none" stroke="#1e88e5" stroke-dasharray="5,2" d="M221.59,-202.69C203.27,-195.32 186.36,-184.46 174.83,-168.5 164.77,-154.57 166.82,-137.33 173.31,-121.22"/>
<polygon fill="#1e88e5" stroke="#1e88e5" points="176.46,-122.75 177.5,-112.21 170.11,-119.8 176.46,-122.75"/>
</a>
</g>
<text xml:space="preserve" text-anchor="middle" x="201.08" y="-159" font-family="Roboto" font-size="10.00">admin_roles</text>
</g>
<!-- GroupMembershipHistory -->
<g id="node6" class="node">
<title>GroupMembershipHistory</title>
<g id="a_node6"><a xlink:href="http://GroupMembershipHistory_details.html" xlink:title="&lt;TABLE&gt;">
<polygon fill="#3f51b5" stroke="none" points="355.96,-116.5 355.96,-135.25 536.71,-135.25 536.71,-116.5 355.96,-116.5"/>
<polygon fill="none" stroke="black" points="355.96,-116.5 355.96,-135.25 536.71,-135.25 536.71,-116.5 355.96,-116.5"/>
<text xml:space="preserve" text-anchor="start" x="378.08" y="-120.85" font-family="Roboto" font-size="12.00" fill="white">GroupMembershipHistory</text>
<polygon fill="#bbdefb" stroke="none" points="355.96,-97.75 355.96,-116.5 446.71,-116.5 446.71,-97.75 355.96,-97.75"/>
<polygon fill="none" stroke="black" points="355.96,-97.75 355.96,-116.5 446.71,-116.5 446.71,-97.75 355.96,-97.75"/>
<text xml:space="preserve" text-anchor="start" x="396.46" y="-102.1" font-family="Roboto" font-size="12.00">id</text>
<polygon fill="#bbdefb" stroke="none" points="446.71,-97.75 446.71,-116.5 536.71,-116.5 536.71,-97.75 446.71,-97.75"/>
<polygon fill="none" stroke="black" points="446.71,-97.75 446.71,-116.5 536.71,-116.5 536.71,-97.75 446.71,-97.75"/>
<text xml:space="preserve" text-anchor="start" x="450.08" y="-102.1" font-family="Roboto" font-size="12.00">CHAR(32) (PK)</text>
<polygon fill="#bbdefb" stroke="none" points="355.96,-79 355.96,-97.75 446.71,-97.75 446.71,-79 355.96,-79"/>
<polygon fill="none" stroke="black" points="355.96,-79 355.96,-97.75 446.71,-97.75 446.71,-79 355.96,-79"/>
<text xml:space="preserve" text-anchor="start" x="377.71" y="-83.35" font-family="Roboto" font-size="12.00">group_id</text>
<polygon fill="#bbdefb" stroke="none" points="446.71,-79 446.71,-97.75 536.71,-97.75 536.71,-79 446.71,-79"/>
<polygon fill="none" stroke="black" points="446.71,-79 446.71,-97.75 536.71,-97.75 536.71,-79 446.71,-79"/>
<text xml:space="preserve" text-anchor="start" x="456.83" y="-83.35" font-family="Roboto" font-size="12.00">VARCHAR ()</text>
<polygon fill="#bbdefb" stroke="none" points="355.96,-60.25 355.96,-79 446.71,-79 446.71,-60.25 355.96,-60.25"/>
<polygon fill="none" stroke="black" points="355.96,-60.25 355.96,-79 446.71,-79 446.71,-60.25 355.96,-60.25"/>
<text xml:space="preserve" text-anchor="start" x="381.46" y="-64.6" font-family="Roboto" font-size="12.00">user_id</text>
<polygon fill="#bbdefb" stroke="none" points="446.71,-60.25 446.71,-79 536.71,-79 536.71,-60.25 446.71,-60.25"/>
<polygon fill="none" stroke="black" points="446.71,-60.25 446.71,-79 536.71,-79 536.71,-60.25 446.71,-60.25"/>
<text xml:space="preserve" text-anchor="start" x="456.83" y="-64.6" font-family="Roboto" font-size="12.00">VARCHAR ()</text>
<polygon fill="#bbdefb" stroke="none" points="355.96,-41.5 355.96,-60.25 446.71,-60.25 446.71,-41.5 355.96,-41.5"/>
<polygon fill="none" stroke="black" points="355.96,-41.5 355.96,-60.25 446.71,-60.25 446.71,-41.5 355.96,-41.5"/>
<text xml:space="preserve" text-anchor="start" x="358.96" y="-45.85" font-family="Roboto" font-size="12.00">approval_status</text>
<polygon fill="#bbdefb" stroke="none" points="446.71,-41.5 446.71,-60.25 536.71,-60.25 536.71,-41.5 446.71,-41.5"/>
<polygon fill="none" stroke="black" points="446.71,-41.5 446.71,-60.25 536.71,-60.25 536.71,-41.5 446.71,-41.5"/>
<text xml:space="preserve" text-anchor="start" x="449.71" y="-45.85" font-family="Roboto" font-size="12.00">VARCHAR(8) ()</text>
<polygon fill="#bbdefb" stroke="none" points="355.96,-22.75 355.96,-41.5 446.71,-41.5 446.71,-22.75 355.96,-22.75"/>
<polygon fill="none" stroke="black" points="355.96,-22.75 355.96,-41.5 446.71,-41.5 446.71,-22.75 355.96,-22.75"/>
<text xml:space="preserve" text-anchor="start" x="371.33" y="-27.1" font-family="Roboto" font-size="12.00">updated_at</text>
<polygon fill="#bbdefb" stroke="none" points="446.71,-22.75 446.71,-41.5 536.71,-41.5 536.71,-22.75 446.71,-22.75"/>
<polygon fill="none" stroke="black" points="446.71,-22.75 446.71,-41.5 536.71,-41.5 536.71,-22.75 446.71,-22.75"/>
<text xml:space="preserve" text-anchor="start" x="456.46" y="-27.1" font-family="Roboto" font-size="12.00">DATETIME ()</text>
<polygon fill="#bbdefb" stroke="none" points="355.96,-4 355.96,-22.75 446.71,-22.75 446.71,-4 355.96,-4"/>
<polygon fill="none" stroke="black" points="355.96,-4 355.96,-22.75 446.71,-22.75 446.71,-4 355.96,-4"/>
<text xml:space="preserve" text-anchor="start" x="361.58" y="-8.35" font-family="Roboto" font-size="12.00">updated_by_id</text>
<polygon fill="#bbdefb" stroke="none" points="446.71,-4 446.71,-22.75 536.71,-22.75 536.71,-4 446.71,-4"/>
<polygon fill="none" stroke="black" points="446.71,-4 446.71,-22.75 536.71,-22.75 536.71,-4 446.71,-4"/>
<text xml:space="preserve" text-anchor="start" x="456.83" y="-8.35" font-family="Roboto" font-size="12.00">VARCHAR ()</text>
</a>
</g>
</g>
<!-- BiocommonsGroup&#45;&gt;GroupMembershipHistory -->
<g id="edge5" class="edge">
<title>BiocommonsGroup&#45;&gt;GroupMembershipHistory</title>
<g id="a_edge5"><a xlink:title="Relation between BiocommonsGroup and GroupMembershipHistory">
<path fill="none" stroke="#1e88e5" stroke-dasharray="5,2" d="M324.47,-186.6C325.95,-176.67 328.78,-165.99 334.08,-157.25 336.15,-153.83 338.42,-150.5 340.83,-147.25"/>
<polygon fill="#1e88e5" stroke="#1e88e5" points="343.52,-149.49 347.08,-139.52 338.08,-145.09 343.52,-149.49"/>
</a>
</g>
<text xml:space="preserve" text-anchor="middle" x="369.71" y="-159" font-family="Roboto" font-size="10.00">approval_history</text>
</g>
<!-- Auth0Role&#45;&gt;BiocommonsGroup -->
<g id="edge16" class="edge">
<title>Auth0Role&#45;&gt;BiocommonsGroup</title>
<g id="a_edge16"><a xlink:title="Relation between Auth0Role and BiocommonsGroup">
<path fill="none" stroke="#1e88e5" stroke-dasharray="5,2" d="M219.41,-111.11C226.41,-129.95 236.64,-151.83 250.58,-168.5 253.75,-172.28 257.28,-175.9 261.02,-179.32"/>
<polygon fill="#1e88e5" stroke="#1e88e5" points="258.48,-181.75 268.37,-185.53 262.99,-176.41 258.48,-181.75"/>
</a>
</g>
<text xml:space="preserve" text-anchor="middle" x="280.96" y="-159" font-family="Roboto" font-size="10.00">admin_groups</text>
</g>
<!-- GroupMembershipHistory&#45;&gt;BiocommonsUser -->
<g id="edge10" class="edge">
<title>GroupMembershipHistory&#45;&gt;BiocommonsUser</title>
<g id="a_edge10"><a xlink:title="Relation between GroupMembershipHistory and BiocommonsUser">
<path fill="none" stroke="#1e88e5" stroke-dasharray="5,2" d="M453.16,-139.14C461.12,-230.28 470.44,-385.88 447.33,-437.25 438.08,-457.82 421.97,-474.56 403.68,-487.98"/>
<polygon fill="#1e88e5" stroke="#1e88e5" points="402.02,-484.87 395.79,-493.44 406,-490.63 402.02,-484.87"/>
</a>
</g>
<text xml:space="preserve" text-anchor="middle" x="470.89" y="-270.5" font-family="Roboto" font-size="10.00">user</text>
</g>
<!-- GroupMembershipHistory&#45;&gt;BiocommonsUser -->
<g id="edge11" class="edge">
<title>GroupMembershipHistory&#45;&gt;BiocommonsUser</title>
<g id="a_edge11"><a xlink:title="Relation between GroupMembershipHistory and BiocommonsUser">
<path fill="none" stroke="#1e88e5" stroke-dasharray="5,2" d="M467.15,-139.19C486.4,-214.92 506.74,-339.13 468.33,-437.25 457.02,-466.14 432.16,-486.78 404.85,-501.38"/>
<polygon fill="#1e88e5" stroke="#1e88e5" points="403.41,-498.18 396.05,-505.81 406.56,-504.44 403.41,-498.18"/>
</a>
</g>
<text xml:space="preserve" text-anchor="middle" x="514.48" y="-270.5" font-family="Roboto" font-size="10.00">updated_by</text>
</g>
<!-- GroupMembershipHistory&#45;&gt;BiocommonsGroup -->
<g id="edge9" class="edge">
<title>GroupMembershipHistory&#45;&gt;BiocommonsGroup</title>
<g id="a_edge9"><a xlink:title="Relation between GroupMembershipHistory and BiocommonsGroup">
<path fill="none" stroke="#1e88e5" stroke-dasharray="5,2" d="M424.27,-139.18C419.07,-149.67 412.81,-159.87 405.33,-168.5 401.85,-172.52 397.95,-176.31 393.8,-179.85"/>
<polygon fill="#1e88e5" stroke="#1e88e5" points="391.86,-176.92 386.16,-185.85 396.18,-182.43 391.86,-176.92"/>
</a>
</g>
<text xml:space="preserve" text-anchor="middle" x="424.35" y="-159" font-family="Roboto" font-size="10.00">group</text>
</g>
<!-- PlatformMembershipHistory -->
<g id="node7" class="node">
<title>PlatformMembershipHistory</title>
<g id="a_node7"><a xlink:href="http://PlatformMembershipHistory_details.html" xlink:title="&lt;TABLE&gt;">
<polygon fill="#3f51b5" stroke="none" points="205.33,-750 205.33,-768.75 391.33,-768.75 391.33,-750 205.33,-750"/>
<polygon fill="none" stroke="black" points="205.33,-750 205.33,-768.75 391.33,-768.75 391.33,-750 205.33,-750"/>
<text xml:space="preserve" text-anchor="start" x="224.46" y="-754.35" font-family="Roboto" font-size="12.00" fill="white">PlatformMembershipHistory</text>
<polygon fill="#bbdefb" stroke="none" points="205.33,-731.25 205.33,-750 296.08,-750 296.08,-731.25 205.33,-731.25"/>
<polygon fill="none" stroke="black" points="205.33,-731.25 205.33,-750 296.08,-750 296.08,-731.25 205.33,-731.25"/>
<text xml:space="preserve" text-anchor="start" x="245.83" y="-735.6" font-family="Roboto" font-size="12.00">id</text>
<polygon fill="#bbdefb" stroke="none" points="296.08,-731.25 296.08,-750 391.33,-750 391.33,-731.25 296.08,-731.25"/>
<polygon fill="none" stroke="black" points="296.08,-731.25 296.08,-750 391.33,-750 391.33,-731.25 296.08,-731.25"/>
<text xml:space="preserve" text-anchor="start" x="302.08" y="-735.6" font-family="Roboto" font-size="12.00">CHAR(32) (PK)</text>
<polygon fill="#bbdefb" stroke="none" points="205.33,-712.5 205.33,-731.25 296.08,-731.25 296.08,-712.5 205.33,-712.5"/>
<polygon fill="none" stroke="black" points="205.33,-712.5 205.33,-731.25 296.08,-731.25 296.08,-712.5 205.33,-712.5"/>
<text xml:space="preserve" text-anchor="start" x="221.08" y="-716.85" font-family="Roboto" font-size="12.00">platform_id</text>
<polygon fill="#bbdefb" stroke="none" points="296.08,-712.5 296.08,-731.25 391.33,-731.25 391.33,-712.5 296.08,-712.5"/>
<polygon fill="none" stroke="black" points="296.08,-712.5 296.08,-731.25 391.33,-731.25 391.33,-712.5 296.08,-712.5"/>
<text xml:space="preserve" text-anchor="start" x="299.08" y="-716.85" font-family="Roboto" font-size="12.00">VARCHAR(11) ()</text>
<polygon fill="#bbdefb" stroke="none" points="205.33,-693.75 205.33,-712.5 296.08,-712.5 296.08,-693.75 205.33,-693.75"/>
<polygon fill="none" stroke="black" points="205.33,-693.75 205.33,-712.5 296.08,-712.5 296.08,-693.75 205.33,-693.75"/>
<text xml:space="preserve" text-anchor="start" x="230.83" y="-698.1" font-family="Roboto" font-size="12.00">user_id</text>
<polygon fill="#bbdefb" stroke="none" points="296.08,-693.75 296.08,-712.5 391.33,-712.5 391.33,-693.75 296.08,-693.75"/>
<polygon fill="none" stroke="black" points="296.08,-693.75 296.08,-712.5 391.33,-712.5 391.33,-693.75 296.08,-693.75"/>
<text xml:space="preserve" text-anchor="start" x="308.83" y="-698.1" font-family="Roboto" font-size="12.00">VARCHAR ()</text>
<polygon fill="#bbdefb" stroke="none" points="205.33,-675 205.33,-693.75 296.08,-693.75 296.08,-675 205.33,-675"/>
<polygon fill="none" stroke="black" points="205.33,-675 205.33,-693.75 296.08,-693.75 296.08,-675 205.33,-675"/>
<text xml:space="preserve" text-anchor="start" x="208.33" y="-679.35" font-family="Roboto" font-size="12.00">approval_status</text>
<polygon fill="#bbdefb" stroke="none" points="296.08,-675 296.08,-693.75 391.33,-693.75 391.33,-675 296.08,-675"/>
<polygon fill="none" stroke="black" points="296.08,-675 296.08,-693.75 391.33,-693.75 391.33,-675 296.08,-675"/>
<text xml:space="preserve" text-anchor="start" x="301.71" y="-679.35" font-family="Roboto" font-size="12.00">VARCHAR(8) ()</text>
<polygon fill="#bbdefb" stroke="none" points="205.33,-656.25 205.33,-675 296.08,-675 296.08,-656.25 205.33,-656.25"/>
<polygon fill="none" stroke="black" points="205.33,-656.25 205.33,-675 296.08,-675 296.08,-656.25 205.33,-656.25"/>
<text xml:space="preserve" text-anchor="start" x="220.71" y="-660.6" font-family="Roboto" font-size="12.00">updated_at</text>
<polygon fill="#bbdefb" stroke="none" points="296.08,-656.25 296.08,-675 391.33,-675 391.33,-656.25 296.08,-656.25"/>
<polygon fill="none" stroke="black" points="296.08,-656.25 296.08,-675 391.33,-675 391.33,-656.25 296.08,-656.25"/>
<text xml:space="preserve" text-anchor="start" x="308.46" y="-660.6" font-family="Roboto" font-size="12.00">DATETIME ()</text>
<polygon fill="#bbdefb" stroke="none" points="205.33,-637.5 205.33,-656.25 296.08,-656.25 296.08,-637.5 205.33,-637.5"/>
<polygon fill="none" stroke="black" points="205.33,-637.5 205.33,-656.25 296.08,-656.25 296.08,-637.5 205.33,-637.5"/>
<text xml:space="preserve" text-anchor="start" x="210.96" y="-641.85" font-family="Roboto" font-size="12.00">updated_by_id</text>
<polygon fill="#bbdefb" stroke="none" points="296.08,-637.5 296.08,-656.25 391.33,-656.25 391.33,-637.5 296.08,-637.5"/>
<polygon fill="none" stroke="black" points="296.08,-637.5 296.08,-656.25 391.33,-656.25 391.33,-637.5 296.08,-637.5"/>
<text xml:space="preserve" text-anchor="start" x="308.83" y="-641.85" font-family="Roboto" font-size="12.00">VARCHAR ()</text>
</a>
</g>
</g>
<!-- PlatformMembershipHistory&#45;&gt;BiocommonsUser -->
<g id="edge14" class="edge">
<title>PlatformMembershipHistory&#45;&gt;BiocommonsUser</title>
<g id="a_edge14"><a xlink:title="Relation between PlatformMembershipHistory and BiocommonsUser">
<path fill="none" stroke="#1e88e5" stroke-dasharray="5,2" d="M278.47,-633.58C277.38,-623.77 277.22,-613.77 278.58,-604.25 278.91,-601.92 279.31,-599.57 279.75,-597.2"/>
<polygon fill="#1e88e5" stroke="#1e88e5" points="283.14,-598.06 281.82,-587.54 276.3,-596.59 283.14,-598.06"/>
</a>
</g>
<text xml:space="preserve" text-anchor="middle" x="287.96" y="-606" font-family="Roboto" font-size="10.00">user</text>
</g>
<!-- PlatformMembershipHistory&#45;&gt;BiocommonsUser -->
<g id="edge15" class="edge">
<title>PlatformMembershipHistory&#45;&gt;BiocommonsUser</title>
<g id="a_edge15"><a xlink:title="Relation between PlatformMembershipHistory and BiocommonsUser">
<path fill="none" stroke="#1e88e5" stroke-dasharray="5,2" d="M298.33,-633.75C298.33,-621.65 298.33,-609.13 298.33,-597.26"/>
<polygon fill="#1e88e5" stroke="#1e88e5" points="301.83,-597.62 298.33,-587.62 294.83,-597.62 301.83,-597.62"/>
</a>
</g>
<text xml:space="preserve" text-anchor="middle" x="323.46" y="-606" font-family="Roboto" font-size="10.00">updated_by</text>
</g>
</g>
</svg>
