<?xml version="1.0" encoding="UTF-8" standalone="no"?>
<!DOCTYPE svg PUBLIC "-//W3C//DTD SVG 1.1//EN"
 "http://www.w3.org/Graphics/SVG/1.1/DTD/svg11.dtd">
<!-- Generated by graphviz version 14.0.0 (20250921.2048)
 -->
<!-- Pages: 1 -->
<svg width="613pt" height="939pt"
 viewBox="0.00 0.00 613.00 939.00" xmlns="http://www.w3.org/2000/svg" xmlns:xlink="http://www.w3.org/1999/xlink">
<g id="graph0" class="graph" transform="scale(1 1) rotate(0) translate(4 935)">
<polygon fill="#eeeeee" stroke="none" points="-4,4 -4,-935 609.12,-935 609.12,4 -4,4"/>
<!-- BiocommonsUser -->
<g id="node1" class="node">
<title>BiocommonsUser</title>
<g id="a_node1"><a xlink:href="http://BiocommonsUser_details.html" xlink:title="&lt;TABLE&gt;">
<polygon fill="#3f51b5" stroke="none" points="229.75,-703 229.75,-721.75 425.5,-721.75 425.5,-703 229.75,-703"/>
<polygon fill="none" stroke="black" points="229.75,-703 229.75,-721.75 425.5,-721.75 425.5,-703 229.75,-703"/>
<text xml:space="preserve" text-anchor="start" x="280" y="-707.35" font-family="Roboto" font-size="12.00" fill="white">BiocommonsUser</text>
<polygon fill="#bbdefb" stroke="none" points="229.75,-684.25 229.75,-703 310.75,-703 310.75,-684.25 229.75,-684.25"/>
<polygon fill="none" stroke="black" points="229.75,-684.25 229.75,-703 310.75,-703 310.75,-684.25 229.75,-684.25"/>
<text xml:space="preserve" text-anchor="start" x="265.38" y="-688.6" font-family="Roboto" font-size="12.00">id</text>
<polygon fill="#bbdefb" stroke="none" points="310.75,-684.25 310.75,-703 425.5,-703 425.5,-684.25 310.75,-684.25"/>
<polygon fill="none" stroke="black" points="310.75,-684.25 310.75,-703 425.5,-703 425.5,-684.25 310.75,-684.25"/>
<text xml:space="preserve" text-anchor="start" x="325" y="-688.6" font-family="Roboto" font-size="12.00">VARCHAR (PK)</text>
<polygon fill="#bbdefb" stroke="none" points="229.75,-665.5 229.75,-684.25 310.75,-684.25 310.75,-665.5 229.75,-665.5"/>
<polygon fill="none" stroke="black" points="229.75,-665.5 229.75,-684.25 310.75,-684.25 310.75,-665.5 229.75,-665.5"/>
<text xml:space="preserve" text-anchor="start" x="255.62" y="-669.85" font-family="Roboto" font-size="12.00">email</text>
<polygon fill="#bbdefb" stroke="none" points="310.75,-665.5 310.75,-684.25 425.5,-684.25 425.5,-665.5 310.75,-665.5"/>
<polygon fill="none" stroke="black" points="310.75,-665.5 310.75,-684.25 425.5,-684.25 425.5,-665.5 310.75,-665.5"/>
<text xml:space="preserve" text-anchor="start" x="313.75" y="-669.85" font-family="Roboto" font-size="12.00">VARCHAR (Unique)</text>
<polygon fill="#bbdefb" stroke="none" points="229.75,-646.75 229.75,-665.5 310.75,-665.5 310.75,-646.75 229.75,-646.75"/>
<polygon fill="none" stroke="black" points="229.75,-646.75 229.75,-665.5 310.75,-665.5 310.75,-646.75 229.75,-646.75"/>
<text xml:space="preserve" text-anchor="start" x="232.75" y="-651.1" font-family="Roboto" font-size="12.00">email_verified</text>
<polygon fill="#bbdefb" stroke="none" points="310.75,-646.75 310.75,-665.5 425.5,-665.5 425.5,-646.75 310.75,-646.75"/>
<polygon fill="none" stroke="black" points="310.75,-646.75 310.75,-665.5 425.5,-665.5 425.5,-646.75 310.75,-646.75"/>
<text xml:space="preserve" text-anchor="start" x="333.62" y="-651.1" font-family="Roboto" font-size="12.00">BOOLEAN ()</text>
<polygon fill="#bbdefb" stroke="none" points="229.75,-628 229.75,-646.75 310.75,-646.75 310.75,-628 229.75,-628"/>
<polygon fill="none" stroke="black" points="229.75,-628 229.75,-646.75 310.75,-646.75 310.75,-628 229.75,-628"/>
<text xml:space="preserve" text-anchor="start" x="243.62" y="-632.35" font-family="Roboto" font-size="12.00">username</text>
<polygon fill="#bbdefb" stroke="none" points="310.75,-628 310.75,-646.75 425.5,-646.75 425.5,-628 310.75,-628"/>
<polygon fill="none" stroke="black" points="310.75,-628 310.75,-646.75 425.5,-646.75 425.5,-628 310.75,-628"/>
<text xml:space="preserve" text-anchor="start" x="313.75" y="-632.35" font-family="Roboto" font-size="12.00">VARCHAR (Unique)</text>
<polygon fill="#bbdefb" stroke="none" points="229.75,-609.25 229.75,-628 310.75,-628 310.75,-609.25 229.75,-609.25"/>
<polygon fill="none" stroke="black" points="229.75,-609.25 229.75,-628 310.75,-628 310.75,-609.25 229.75,-609.25"/>
<text xml:space="preserve" text-anchor="start" x="242.12" y="-613.6" font-family="Roboto" font-size="12.00">created_at</text>
<polygon fill="#bbdefb" stroke="none" points="310.75,-609.25 310.75,-628 425.5,-628 425.5,-609.25 310.75,-609.25"/>
<polygon fill="none" stroke="black" points="310.75,-609.25 310.75,-628 425.5,-628 425.5,-609.25 310.75,-609.25"/>
<text xml:space="preserve" text-anchor="start" x="332.88" y="-613.6" font-family="Roboto" font-size="12.00">DATETIME ()</text>
</a>
</g>
</g>
<!-- PlatformMembership -->
<g id="node2" class="node">
<title>PlatformMembership</title>
<g id="a_node2"><a xlink:href="http://PlatformMembership_details.html" xlink:title="&lt;TABLE&gt;">
<polygon fill="#3f51b5" stroke="none" points="8,-535.25 8,-554 223.25,-554 223.25,-535.25 8,-535.25"/>
<polygon fill="none" stroke="black" points="8,-535.25 8,-554 223.25,-554 223.25,-535.25 8,-535.25"/>
<text xml:space="preserve" text-anchor="start" x="60.5" y="-539.6" font-family="Roboto" font-size="12.00" fill="white">PlatformMembership</text>
<polygon fill="#bbdefb" stroke="none" points="8,-516.5 8,-535.25 113,-535.25 113,-516.5 8,-516.5"/>
<polygon fill="none" stroke="black" points="8,-516.5 8,-535.25 113,-535.25 113,-516.5 8,-516.5"/>
<text xml:space="preserve" text-anchor="start" x="55.62" y="-520.85" font-family="Roboto" font-size="12.00">id</text>
<polygon fill="#bbdefb" stroke="none" points="113,-516.5 113,-535.25 223.25,-535.25 223.25,-516.5 113,-516.5"/>
<polygon fill="none" stroke="black" points="113,-516.5 113,-535.25 223.25,-535.25 223.25,-516.5 113,-516.5"/>
<text xml:space="preserve" text-anchor="start" x="126.5" y="-520.85" font-family="Roboto" font-size="12.00">CHAR(32) (PK)</text>
<polygon fill="#bbdefb" stroke="none" points="8,-497.75 8,-516.5 113,-516.5 113,-497.75 8,-497.75"/>
<polygon fill="none" stroke="black" points="8,-497.75 8,-516.5 113,-516.5 113,-497.75 8,-497.75"/>
<text xml:space="preserve" text-anchor="start" x="30.88" y="-502.1" font-family="Roboto" font-size="12.00">platform_id</text>
<polygon fill="#bbdefb" stroke="none" points="113,-497.75 113,-516.5 223.25,-516.5 223.25,-497.75 113,-497.75"/>
<polygon fill="none" stroke="black" points="113,-497.75 113,-516.5 223.25,-516.5 223.25,-497.75 113,-497.75"/>
<text xml:space="preserve" text-anchor="start" x="122.75" y="-502.1" font-family="Roboto" font-size="12.00">VARCHAR(15) ()</text>
<polygon fill="#bbdefb" stroke="none" points="8,-479 8,-497.75 113,-497.75 113,-479 8,-479"/>
<polygon fill="none" stroke="black" points="8,-479 8,-497.75 113,-497.75 113,-479 8,-479"/>
<text xml:space="preserve" text-anchor="start" x="40.62" y="-483.35" font-family="Roboto" font-size="12.00">user_id</text>
<polygon fill="#bbdefb" stroke="none" points="113,-479 113,-497.75 223.25,-497.75 223.25,-479 113,-479"/>
<polygon fill="none" stroke="black" points="113,-479 113,-497.75 223.25,-497.75 223.25,-479 113,-479"/>
<text xml:space="preserve" text-anchor="start" x="133.25" y="-483.35" font-family="Roboto" font-size="12.00">VARCHAR ()</text>
<polygon fill="#bbdefb" stroke="none" points="8,-460.25 8,-479 113,-479 113,-460.25 8,-460.25"/>
<polygon fill="none" stroke="black" points="8,-460.25 8,-479 113,-479 113,-460.25 8,-460.25"/>
<text xml:space="preserve" text-anchor="start" x="18.12" y="-464.6" font-family="Roboto" font-size="12.00">approval_status</text>
<polygon fill="#bbdefb" stroke="none" points="113,-460.25 113,-479 223.25,-479 223.25,-460.25 113,-460.25"/>
<polygon fill="none" stroke="black" points="113,-460.25 113,-479 223.25,-479 223.25,-460.25 113,-460.25"/>
<text xml:space="preserve" text-anchor="start" x="126.12" y="-464.6" font-family="Roboto" font-size="12.00">VARCHAR(8) ()</text>
<polygon fill="#bbdefb" stroke="none" points="8,-441.5 8,-460.25 113,-460.25 113,-441.5 8,-441.5"/>
<polygon fill="none" stroke="black" points="8,-441.5 8,-460.25 113,-460.25 113,-441.5 8,-441.5"/>
<text xml:space="preserve" text-anchor="start" x="30.5" y="-445.85" font-family="Roboto" font-size="12.00">updated_at</text>
<polygon fill="#bbdefb" stroke="none" points="113,-441.5 113,-460.25 223.25,-460.25 223.25,-441.5 113,-441.5"/>
<polygon fill="none" stroke="black" points="113,-441.5 113,-460.25 223.25,-460.25 223.25,-441.5 113,-441.5"/>
<text xml:space="preserve" text-anchor="start" x="132.88" y="-445.85" font-family="Roboto" font-size="12.00">DATETIME ()</text>
<polygon fill="#bbdefb" stroke="none" points="8,-422.75 8,-441.5 113,-441.5 113,-422.75 8,-422.75"/>
<polygon fill="none" stroke="black" points="8,-422.75 8,-441.5 113,-441.5 113,-422.75 8,-422.75"/>
<text xml:space="preserve" text-anchor="start" x="20.75" y="-427.1" font-family="Roboto" font-size="12.00">updated_by_id</text>
<polygon fill="#bbdefb" stroke="none" points="113,-422.75 113,-441.5 223.25,-441.5 223.25,-422.75 113,-422.75"/>
<polygon fill="none" stroke="black" points="113,-422.75 113,-441.5 223.25,-441.5 223.25,-422.75 113,-422.75"/>
<text xml:space="preserve" text-anchor="start" x="133.25" y="-427.1" font-family="Roboto" font-size="12.00">VARCHAR ()</text>
<polygon fill="#bbdefb" stroke="none" points="8,-404 8,-422.75 113,-422.75 113,-404 8,-404"/>
<polygon fill="none" stroke="black" points="8,-404 8,-422.75 113,-422.75 113,-404 8,-404"/>
<text xml:space="preserve" text-anchor="start" x="11" y="-408.35" font-family="Roboto" font-size="12.00">revocation_reason</text>
<polygon fill="#bbdefb" stroke="none" points="113,-404 113,-422.75 223.25,-422.75 223.25,-404 113,-404"/>
<polygon fill="none" stroke="black" points="113,-404 113,-422.75 223.25,-422.75 223.25,-404 113,-404"/>
<text xml:space="preserve" text-anchor="start" x="116" y="-408.35" font-family="Roboto" font-size="12.00">VARCHAR(1024) ()</text>
</a>
</g>
</g>
<!-- BiocommonsUser&#45;&gt;PlatformMembership -->
<g id="edge1" class="edge">
<title>BiocommonsUser&#45;&gt;PlatformMembership</title>
<g id="a_edge1"><a xlink:title="Relation between BiocommonsUser and PlatformMembership">
<path fill="none" stroke="#1e88e5" stroke-dasharray="5,2" d="M222.06,-650.14C148.47,-637.72 59.53,-617.03 36.62,-587.25 32.09,-581.35 29.94,-575.24 29.65,-569.06"/>
<polygon fill="#1e88e5" stroke="#1e88e5" points="33.09,-569.76 30.84,-559.4 26.14,-568.9 33.09,-569.76"/>
</a>
</g>
<text xml:space="preserve" text-anchor="middle" x="86.12" y="-577.75" font-family="Roboto" font-size="10.00">platform_memberships</text>
</g>
<!-- GroupMembership -->
<g id="node3" class="node">
<title>GroupMembership</title>
<g id="a_node3"><a xlink:href="http://GroupMembership_details.html" xlink:title="&lt;TABLE&gt;">
<polygon fill="#3f51b5" stroke="none" points="257,-535.25 257,-554 472.25,-554 472.25,-535.25 257,-535.25"/>
<polygon fill="none" stroke="black" points="257,-535.25 257,-554 472.25,-554 472.25,-535.25 257,-535.25"/>
<text xml:space="preserve" text-anchor="start" x="315.12" y="-539.6" font-family="Roboto" font-size="12.00" fill="white">GroupMembership</text>
<polygon fill="#bbdefb" stroke="none" points="257,-516.5 257,-535.25 362,-535.25 362,-516.5 257,-516.5"/>
<polygon fill="none" stroke="black" points="257,-516.5 257,-535.25 362,-535.25 362,-516.5 257,-516.5"/>
<text xml:space="preserve" text-anchor="start" x="304.62" y="-520.85" font-family="Roboto" font-size="12.00">id</text>
<polygon fill="#bbdefb" stroke="none" points="362,-516.5 362,-535.25 472.25,-535.25 472.25,-516.5 362,-516.5"/>
<polygon fill="none" stroke="black" points="362,-516.5 362,-535.25 472.25,-535.25 472.25,-516.5 362,-516.5"/>
<text xml:space="preserve" text-anchor="start" x="375.5" y="-520.85" font-family="Roboto" font-size="12.00">CHAR(32) (PK)</text>
<polygon fill="#bbdefb" stroke="none" points="257,-497.75 257,-516.5 362,-516.5 362,-497.75 257,-497.75"/>
<polygon fill="none" stroke="black" points="257,-497.75 257,-516.5 362,-516.5 362,-497.75 257,-497.75"/>
<text xml:space="preserve" text-anchor="start" x="285.88" y="-502.1" font-family="Roboto" font-size="12.00">group_id</text>
<polygon fill="#bbdefb" stroke="none" points="362,-497.75 362,-516.5 472.25,-516.5 472.25,-497.75 362,-497.75"/>
<polygon fill="none" stroke="black" points="362,-497.75 362,-516.5 472.25,-516.5 472.25,-497.75 362,-497.75"/>
<text xml:space="preserve" text-anchor="start" x="382.25" y="-502.1" font-family="Roboto" font-size="12.00">VARCHAR ()</text>
<polygon fill="#bbdefb" stroke="none" points="257,-479 257,-497.75 362,-497.75 362,-479 257,-479"/>
<polygon fill="none" stroke="black" points="257,-479 257,-497.75 362,-497.75 362,-479 257,-479"/>
<text xml:space="preserve" text-anchor="start" x="289.62" y="-483.35" font-family="Roboto" font-size="12.00">user_id</text>
<polygon fill="#bbdefb" stroke="none" points="362,-479 362,-497.75 472.25,-497.75 472.25,-479 362,-479"/>
<polygon fill="none" stroke="black" points="362,-479 362,-497.75 472.25,-497.75 472.25,-479 362,-479"/>
<text xml:space="preserve" text-anchor="start" x="382.25" y="-483.35" font-family="Roboto" font-size="12.00">VARCHAR ()</text>
<polygon fill="#bbdefb" stroke="none" points="257,-460.25 257,-479 362,-479 362,-460.25 257,-460.25"/>
<polygon fill="none" stroke="black" points="257,-460.25 257,-479 362,-479 362,-460.25 257,-460.25"/>
<text xml:space="preserve" text-anchor="start" x="267.12" y="-464.6" font-family="Roboto" font-size="12.00">approval_status</text>
<polygon fill="#bbdefb" stroke="none" points="362,-460.25 362,-479 472.25,-479 472.25,-460.25 362,-460.25"/>
<polygon fill="none" stroke="black" points="362,-460.25 362,-479 472.25,-479 472.25,-460.25 362,-460.25"/>
<text xml:space="preserve" text-anchor="start" x="375.12" y="-464.6" font-family="Roboto" font-size="12.00">VARCHAR(8) ()</text>
<polygon fill="#bbdefb" stroke="none" points="257,-441.5 257,-460.25 362,-460.25 362,-441.5 257,-441.5"/>
<polygon fill="none" stroke="black" points="257,-441.5 257,-460.25 362,-460.25 362,-441.5 257,-441.5"/>
<text xml:space="preserve" text-anchor="start" x="279.5" y="-445.85" font-family="Roboto" font-size="12.00">updated_at</text>
<polygon fill="#bbdefb" stroke="none" points="362,-441.5 362,-460.25 472.25,-460.25 472.25,-441.5 362,-441.5"/>
<polygon fill="none" stroke="black" points="362,-441.5 362,-460.25 472.25,-460.25 472.25,-441.5 362,-441.5"/>
<text xml:space="preserve" text-anchor="start" x="381.88" y="-445.85" font-family="Roboto" font-size="12.00">DATETIME ()</text>
<polygon fill="#bbdefb" stroke="none" points="257,-422.75 257,-441.5 362,-441.5 362,-422.75 257,-422.75"/>
<polygon fill="none" stroke="black" points="257,-422.75 257,-441.5 362,-441.5 362,-422.75 257,-422.75"/>
<text xml:space="preserve" text-anchor="start" x="269.75" y="-427.1" font-family="Roboto" font-size="12.00">updated_by_id</text>
<polygon fill="#bbdefb" stroke="none" points="362,-422.75 362,-441.5 472.25,-441.5 472.25,-422.75 362,-422.75"/>
<polygon fill="none" stroke="black" points="362,-422.75 362,-441.5 472.25,-441.5 472.25,-422.75 362,-422.75"/>
<text xml:space="preserve" text-anchor="start" x="382.25" y="-427.1" font-family="Roboto" font-size="12.00">VARCHAR ()</text>
<polygon fill="#bbdefb" stroke="none" points="257,-404 257,-422.75 362,-422.75 362,-404 257,-404"/>
<polygon fill="none" stroke="black" points="257,-404 257,-422.75 362,-422.75 362,-404 257,-404"/>
<text xml:space="preserve" text-anchor="start" x="260" y="-408.35" font-family="Roboto" font-size="12.00">revocation_reason</text>
<polygon fill="#bbdefb" stroke="none" points="362,-404 362,-422.75 472.25,-422.75 472.25,-404 362,-404"/>
<polygon fill="none" stroke="black" points="362,-404 362,-422.75 472.25,-422.75 472.25,-404 362,-404"/>
<text xml:space="preserve" text-anchor="start" x="365" y="-408.35" font-family="Roboto" font-size="12.00">VARCHAR(1024) ()</text>
</a>
</g>
</g>
<!-- BiocommonsUser&#45;&gt;GroupMembership -->
<g id="edge2" class="edge">
<title>BiocommonsUser&#45;&gt;GroupMembership</title>
<g id="a_edge2"><a xlink:title="Relation between BiocommonsUser and GroupMembership">
<path fill="none" stroke="#1e88e5" stroke-dasharray="5,2" d="M274.16,-605.44C270.7,-595.87 269.95,-585.85 273.88,-576 275.01,-573.15 276.27,-570.34 277.65,-567.57"/>
<polygon fill="#1e88e5" stroke="#1e88e5" points="280.59,-569.48 282.35,-559.03 274.46,-566.1 280.59,-569.48"/>
</a>
</g>
<text xml:space="preserve" text-anchor="middle" x="317.75" y="-577.75" font-family="Roboto" font-size="10.00">group_memberships</text>
</g>
<!-- PlatformMembership&#45;&gt;BiocommonsUser -->
<g id="edge13" class="edge">
<title>PlatformMembership&#45;&gt;BiocommonsUser</title>
<g id="a_edge13"><a xlink:title="Relation between PlatformMembership and BiocommonsUser">
<path fill="none" stroke="#1e88e5" stroke-dasharray="5,2" d="M138.65,-557.84C144.1,-568.54 150.76,-578.76 158.88,-587.25 173.75,-602.83 192.36,-615.54 211.75,-625.81"/>
<polygon fill="#1e88e5" stroke="#1e88e5" points="210.09,-628.89 220.59,-630.28 213.25,-622.65 210.09,-628.89"/>
</a>
</g>
<text xml:space="preserve" text-anchor="middle" x="168.25" y="-577.75" font-family="Roboto" font-size="10.00">user</text>
</g>
<!-- PlatformMembership&#45;&gt;BiocommonsUser -->
<g id="edge14" class="edge">
<title>PlatformMembership&#45;&gt;BiocommonsUser</title>
<g id="a_edge14"><a xlink:title="Relation between PlatformMembership and BiocommonsUser">
<path fill="none" stroke="#1e88e5" stroke-dasharray="5,2" d="M185.81,-557.76C196.08,-568.01 206.78,-578.12 217.38,-587.25 221.69,-590.97 226.18,-594.68 230.78,-598.35"/>
<polygon fill="#1e88e5" stroke="#1e88e5" points="228.51,-601.02 238.54,-604.42 232.82,-595.5 228.51,-601.02"/>
</a>
</g>
<text xml:space="preserve" text-anchor="middle" x="242.5" y="-577.75" font-family="Roboto" font-size="10.00">updated_by</text>
</g>
<!-- Platform -->
<g id="node7" class="node">
<title>Platform</title>
<text xml:space="preserve" text-anchor="middle" x="131.62" y="-12.97" font-family="Roboto" font-size="12.00">Platform</text>
</g>
<!-- PlatformMembership&#45;&gt;Platform -->
<g id="edge12" class="edge">
<title>PlatformMembership&#45;&gt;Platform</title>
<g id="a_edge12"><a xlink:title="Relation between PlatformMembership and Platform">
<path fill="none" stroke="#1e88e5" stroke-dasharray="5,2" d="M118.34,-400.14C121.97,-295.9 128.24,-116.13 130.65,-47.11"/>
<polygon fill="#1e88e5" stroke="#1e88e5" points="134.13,-47.54 130.98,-37.43 127.14,-47.3 134.13,-47.54"/>
</a>
</g>
<text xml:space="preserve" text-anchor="middle" x="140.7" y="-261" font-family="Roboto" font-size="10.00">platform</text>
</g>
<!-- GroupMembership&#45;&gt;BiocommonsUser -->
<g id="edge7" class="edge">
<title>GroupMembership&#45;&gt;BiocommonsUser</title>
<g id="a_edge7"><a xlink:title="Relation between GroupMembership and BiocommonsUser">
<path fill="none" stroke="#1e88e5" stroke-dasharray="5,2" d="M366,-557.77C365.14,-567.76 363.75,-577.8 361.62,-587.25 361.08,-589.69 360.45,-592.15 359.76,-594.61"/>
<polygon fill="#1e88e5" stroke="#1e88e5" points="356.48,-593.36 356.8,-603.95 363.16,-595.47 356.48,-593.36"/>
</a>
</g>
<text xml:space="preserve" text-anchor="middle" x="372.7" y="-577.75" font-family="Roboto" font-size="10.00">user</text>
</g>
<!-- GroupMembership&#45;&gt;BiocommonsUser -->
<g id="edge8" class="edge">
<title>GroupMembership&#45;&gt;BiocommonsUser</title>
<g id="a_edge8"><a xlink:title="Relation between GroupMembership and BiocommonsUser">
<path fill="none" stroke="#1e88e5" stroke-dasharray="5,2" d="M389.33,-557.94C389.73,-567.91 388.75,-577.89 385.62,-587.25 384.72,-589.96 383.68,-592.66 382.52,-595.33"/>
<polygon fill="#1e88e5" stroke="#1e88e5" points="379.48,-593.58 378.2,-604.1 385.76,-596.67 379.48,-593.58"/>
</a>
</g>
<text xml:space="preserve" text-anchor="middle" x="412.98" y="-577.75" font-family="Roboto" font-size="10.00">updated_by</text>
</g>
<!-- BiocommonsGroup -->
<g id="node4" class="node">
<title>BiocommonsGroup</title>
<g id="a_node4"><a xlink:href="http://BiocommonsGroup_details.html" xlink:title="&lt;TABLE&gt;">
<polygon fill="#3f51b5" stroke="none" points="263.88,-330 263.88,-348.75 451.38,-348.75 451.38,-330 263.88,-330"/>
<polygon fill="none" stroke="black" points="263.88,-330 263.88,-348.75 451.38,-348.75 451.38,-330 263.88,-330"/>
<text xml:space="preserve" text-anchor="start" x="306.25" y="-334.35" font-family="Roboto" font-size="12.00" fill="white">BiocommonsGroup</text>
<polygon fill="#bbdefb" stroke="none" points="263.88,-311.25 263.88,-330 317.12,-330 317.12,-311.25 263.88,-311.25"/>
<polygon fill="none" stroke="black" points="263.88,-311.25 263.88,-330 317.12,-330 317.12,-311.25 263.88,-311.25"/>
<text xml:space="preserve" text-anchor="start" x="266.88" y="-315.6" font-family="Roboto" font-size="12.00">group_id</text>
<polygon fill="#bbdefb" stroke="none" points="317.12,-311.25 317.12,-330 451.38,-330 451.38,-311.25 317.12,-311.25"/>
<polygon fill="none" stroke="black" points="317.12,-311.25 317.12,-330 451.38,-330 451.38,-311.25 317.12,-311.25"/>
<text xml:space="preserve" text-anchor="start" x="320.12" y="-315.6" font-family="Roboto" font-size="12.00">VARCHAR (PK,Unique)</text>
<polygon fill="#bbdefb" stroke="none" points="263.88,-292.5 263.88,-311.25 317.12,-311.25 317.12,-292.5 263.88,-292.5"/>
<polygon fill="none" stroke="black" points="263.88,-292.5 263.88,-311.25 317.12,-311.25 317.12,-292.5 263.88,-292.5"/>
<text xml:space="preserve" text-anchor="start" x="275.5" y="-296.85" font-family="Roboto" font-size="12.00">name</text>
<polygon fill="#bbdefb" stroke="none" points="317.12,-292.5 317.12,-311.25 451.38,-311.25 451.38,-292.5 317.12,-292.5"/>
<polygon fill="none" stroke="black" points="317.12,-292.5 317.12,-311.25 451.38,-311.25 451.38,-292.5 317.12,-292.5"/>
<text xml:space="preserve" text-anchor="start" x="329.88" y="-296.85" font-family="Roboto" font-size="12.00">VARCHAR (Unique)</text>
</a>
</g>
</g>
<!-- GroupMembership&#45;&gt;BiocommonsGroup -->
<g id="edge6" class="edge">
<title>GroupMembership&#45;&gt;BiocommonsGroup</title>
<g id="a_edge6"><a xlink:title="Relation between GroupMembership and BiocommonsGroup">
<path fill="none" stroke="#1e88e5" stroke-dasharray="5,2" d="M330.39,-400.08C329.1,-390.25 329.25,-380.3 331.62,-370.75 332.26,-368.18 333.06,-365.6 333.98,-363.04"/>
<polygon fill="#1e88e5" stroke="#1e88e5" points="337.1,-364.66 337.74,-354.09 330.64,-361.95 337.1,-364.66"/>
</a>
</g>
<text xml:space="preserve" text-anchor="middle" x="343.62" y="-372.5" font-family="Roboto" font-size="10.00">group</text>
</g>
<!-- BiocommonsGroup&#45;&gt;GroupMembership -->
<g id="edge4" class="edge">
<title>BiocommonsGroup&#45;&gt;GroupMembership</title>
<g id="a_edge4"><a xlink:title="Relation between BiocommonsGroup and GroupMembership">
<path fill="none" stroke="#1e88e5" stroke-dasharray="5,2" d="M359.02,-352.73C359.49,-363.39 360.06,-375.91 360.63,-388.84"/>
<polygon fill="#1e88e5" stroke="#1e88e5" points="357.13,-388.93 361.08,-398.76 364.13,-388.61 357.13,-388.93"/>
</a>
</g>
<text xml:space="preserve" text-anchor="middle" x="380.54" y="-372.5" font-family="Roboto" font-size="10.00">members</text>
</g>
<!-- Auth0Role -->
<g id="node5" class="node">
<title>Auth0Role</title>
<g id="a_node5"><a xlink:href="http://Auth0Role_details.html" xlink:title="&lt;TABLE&gt;">
<polygon fill="#3f51b5" stroke="none" points="151.25,-181 151.25,-199.75 350,-199.75 350,-181 151.25,-181"/>
<polygon fill="none" stroke="black" points="151.25,-181 151.25,-199.75 350,-199.75 350,-181 151.25,-181"/>
<text xml:space="preserve" text-anchor="start" x="222.12" y="-185.35" font-family="Roboto" font-size="12.00" fill="white">Auth0Role</text>
<polygon fill="#bbdefb" stroke="none" points="151.25,-162.25 151.25,-181 215.75,-181 215.75,-162.25 151.25,-162.25"/>
<polygon fill="none" stroke="black" points="151.25,-162.25 151.25,-181 215.75,-181 215.75,-162.25 151.25,-162.25"/>
<text xml:space="preserve" text-anchor="start" x="178.62" y="-166.6" font-family="Roboto" font-size="12.00">id</text>
<polygon fill="#bbdefb" stroke="none" points="215.75,-162.25 215.75,-181 350,-181 350,-162.25 215.75,-162.25"/>
<polygon fill="none" stroke="black" points="215.75,-162.25 215.75,-181 350,-181 350,-162.25 215.75,-162.25"/>
<text xml:space="preserve" text-anchor="start" x="218.75" y="-166.6" font-family="Roboto" font-size="12.00">VARCHAR (PK,Unique)</text>
<polygon fill="#bbdefb" stroke="none" points="151.25,-143.5 151.25,-162.25 215.75,-162.25 215.75,-143.5 151.25,-143.5"/>
<polygon fill="none" stroke="black" points="151.25,-143.5 151.25,-162.25 215.75,-162.25 215.75,-143.5 151.25,-143.5"/>
<text xml:space="preserve" text-anchor="start" x="168.5" y="-147.85" font-family="Roboto" font-size="12.00">name</text>
<polygon fill="#bbdefb" stroke="none" points="215.75,-143.5 215.75,-162.25 350,-162.25 350,-143.5 215.75,-143.5"/>
<polygon fill="none" stroke="black" points="215.75,-143.5 215.75,-162.25 350,-162.25 350,-143.5 215.75,-143.5"/>
<text xml:space="preserve" text-anchor="start" x="248" y="-147.85" font-family="Roboto" font-size="12.00">VARCHAR ()</text>
<polygon fill="#bbdefb" stroke="none" points="151.25,-124.75 151.25,-143.5 215.75,-143.5 215.75,-124.75 151.25,-124.75"/>
<polygon fill="none" stroke="black" points="151.25,-124.75 151.25,-143.5 215.75,-143.5 215.75,-124.75 151.25,-124.75"/>
<text xml:space="preserve" text-anchor="start" x="154.25" y="-129.1" font-family="Roboto" font-size="12.00">description</text>
<polygon fill="#bbdefb" stroke="none" points="215.75,-124.75 215.75,-143.5 350,-143.5 350,-124.75 215.75,-124.75"/>
<polygon fill="none" stroke="black" points="215.75,-124.75 215.75,-143.5 350,-143.5 350,-124.75 215.75,-124.75"/>
<text xml:space="preserve" text-anchor="start" x="248" y="-129.1" font-family="Roboto" font-size="12.00">VARCHAR ()</text>
</a>
</g>
</g>
<!-- BiocommonsGroup&#45;&gt;Auth0Role -->
<g id="edge3" class="edge">
<title>BiocommonsGroup&#45;&gt;Auth0Role</title>
<g id="a_edge3"><a xlink:title="Relation between BiocommonsGroup and Auth0Role">
<path fill="none" stroke="#1e88e5" stroke-dasharray="5,2" d="M255.93,-301.27C240.69,-294.11 226.85,-284.2 217.12,-270.5 205.31,-253.86 208.75,-232.9 216.95,-213.94"/>
<polygon fill="#1e88e5" stroke="#1e88e5" points="220.06,-215.54 221.26,-205.02 213.76,-212.5 220.06,-215.54"/>
</a>
</g>
<text xml:space="preserve" text-anchor="middle" x="243.38" y="-261" font-family="Roboto" font-size="10.00">admin_roles</text>
</g>
<!-- GroupMembershipHistory -->
<g id="node6" class="node">
<title>GroupMembershipHistory</title>
<g id="a_node6"><a xlink:href="http://GroupMembershipHistory_details.html" xlink:title="&lt;TABLE&gt;">
<polygon fill="#3f51b5" stroke="none" points="396.12,-218.5 396.12,-237.25 597.12,-237.25 597.12,-218.5 396.12,-218.5"/>
<polygon fill="none" stroke="black" points="396.12,-218.5 396.12,-237.25 597.12,-237.25 597.12,-218.5 396.12,-218.5"/>
<text xml:space="preserve" text-anchor="start" x="428.38" y="-222.85" font-family="Roboto" font-size="12.00" fill="white">GroupMembershipHistory</text>
<polygon fill="#bbdefb" stroke="none" points="396.12,-199.75 396.12,-218.5 486.88,-218.5 486.88,-199.75 396.12,-199.75"/>
<polygon fill="none" stroke="black" points="396.12,-199.75 396.12,-218.5 486.88,-218.5 486.88,-199.75 396.12,-199.75"/>
<text xml:space="preserve" text-anchor="start" x="436.62" y="-204.1" font-family="Roboto" font-size="12.00">id</text>
<polygon fill="#bbdefb" stroke="none" points="486.88,-199.75 486.88,-218.5 597.12,-218.5 597.12,-199.75 486.88,-199.75"/>
<polygon fill="none" stroke="black" points="486.88,-199.75 486.88,-218.5 597.12,-218.5 597.12,-199.75 486.88,-199.75"/>
<text xml:space="preserve" text-anchor="start" x="500.38" y="-204.1" font-family="Roboto" font-size="12.00">CHAR(32) (PK)</text>
<polygon fill="#bbdefb" stroke="none" points="396.12,-181 396.12,-199.75 486.88,-199.75 486.88,-181 396.12,-181"/>
<polygon fill="none" stroke="black" points="396.12,-181 396.12,-199.75 486.88,-199.75 486.88,-181 396.12,-181"/>
<text xml:space="preserve" text-anchor="start" x="417.88" y="-185.35" font-family="Roboto" font-size="12.00">group_id</text>
<polygon fill="#bbdefb" stroke="none" points="486.88,-181 486.88,-199.75 597.12,-199.75 597.12,-181 486.88,-181"/>
<polygon fill="none" stroke="black" points="486.88,-181 486.88,-199.75 597.12,-199.75 597.12,-181 486.88,-181"/>
<text xml:space="preserve" text-anchor="start" x="507.12" y="-185.35" font-family="Roboto" font-size="12.00">VARCHAR ()</text>
<polygon fill="#bbdefb" stroke="none" points="396.12,-162.25 396.12,-181 486.88,-181 486.88,-162.25 396.12,-162.25"/>
<polygon fill="none" stroke="black" points="396.12,-162.25 396.12,-181 486.88,-181 486.88,-162.25 396.12,-162.25"/>
<text xml:space="preserve" text-anchor="start" x="421.62" y="-166.6" font-family="Roboto" font-size="12.00">user_id</text>
<polygon fill="#bbdefb" stroke="none" points="486.88,-162.25 486.88,-181 597.12,-181 597.12,-162.25 486.88,-162.25"/>
<polygon fill="none" stroke="black" points="486.88,-162.25 486.88,-181 597.12,-181 597.12,-162.25 486.88,-162.25"/>
<text xml:space="preserve" text-anchor="start" x="507.12" y="-166.6" font-family="Roboto" font-size="12.00">VARCHAR ()</text>
<polygon fill="#bbdefb" stroke="none" points="396.12,-143.5 396.12,-162.25 486.88,-162.25 486.88,-143.5 396.12,-143.5"/>
<polygon fill="none" stroke="black" points="396.12,-143.5 396.12,-162.25 486.88,-162.25 486.88,-143.5 396.12,-143.5"/>
<text xml:space="preserve" text-anchor="start" x="399.12" y="-147.85" font-family="Roboto" font-size="12.00">approval_status</text>
<polygon fill="#bbdefb" stroke="none" points="486.88,-143.5 486.88,-162.25 597.12,-162.25 597.12,-143.5 486.88,-143.5"/>
<polygon fill="none" stroke="black" points="486.88,-143.5 486.88,-162.25 597.12,-162.25 597.12,-143.5 486.88,-143.5"/>
<text xml:space="preserve" text-anchor="start" x="500" y="-147.85" font-family="Roboto" font-size="12.00">VARCHAR(8) ()</text>
<polygon fill="#bbdefb" stroke="none" points="396.12,-124.75 396.12,-143.5 486.88,-143.5 486.88,-124.75 396.12,-124.75"/>
<polygon fill="none" stroke="black" points="396.12,-124.75 396.12,-143.5 486.88,-143.5 486.88,-124.75 396.12,-124.75"/>
<text xml:space="preserve" text-anchor="start" x="411.5" y="-129.1" font-family="Roboto" font-size="12.00">updated_at</text>
<polygon fill="#bbdefb" stroke="none" points="486.88,-124.75 486.88,-143.5 597.12,-143.5 597.12,-124.75 486.88,-124.75"/>
<polygon fill="none" stroke="black" points="486.88,-124.75 486.88,-143.5 597.12,-143.5 597.12,-124.75 486.88,-124.75"/>
<text xml:space="preserve" text-anchor="start" x="506.75" y="-129.1" font-family="Roboto" font-size="12.00">DATETIME ()</text>
<polygon fill="#bbdefb" stroke="none" points="396.12,-106 396.12,-124.75 486.88,-124.75 486.88,-106 396.12,-106"/>
<polygon fill="none" stroke="black" points="396.12,-106 396.12,-124.75 486.88,-124.75 486.88,-106 396.12,-106"/>
<text xml:space="preserve" text-anchor="start" x="401.75" y="-110.35" font-family="Roboto" font-size="12.00">updated_by_id</text>
<polygon fill="#bbdefb" stroke="none" points="486.88,-106 486.88,-124.75 597.12,-124.75 597.12,-106 486.88,-106"/>
<polygon fill="none" stroke="black" points="486.88,-106 486.88,-124.75 597.12,-124.75 597.12,-106 486.88,-106"/>
<text xml:space="preserve" text-anchor="start" x="507.12" y="-110.35" font-family="Roboto" font-size="12.00">VARCHAR ()</text>
<polygon fill="#bbdefb" stroke="none" points="396.12,-87.25 396.12,-106 486.88,-106 486.88,-87.25 396.12,-87.25"/>
<polygon fill="none" stroke="black" points="396.12,-87.25 396.12,-106 486.88,-106 486.88,-87.25 396.12,-87.25"/>
<text xml:space="preserve" text-anchor="start" x="423.12" y="-91.6" font-family="Roboto" font-size="12.00">reason</text>
<polygon fill="#bbdefb" stroke="none" points="486.88,-87.25 486.88,-106 597.12,-106 597.12,-87.25 486.88,-87.25"/>
<polygon fill="none" stroke="black" points="486.88,-87.25 486.88,-106 597.12,-106 597.12,-87.25 486.88,-87.25"/>
<text xml:space="preserve" text-anchor="start" x="489.88" y="-91.6" font-family="Roboto" font-size="12.00">VARCHAR(1024) ()</text>
</a>
</g>
</g>
<!-- BiocommonsGroup&#45;&gt;GroupMembershipHistory -->
<g id="edge5" class="edge">
<title>BiocommonsGroup&#45;&gt;GroupMembershipHistory</title>
<g id="a_edge5"><a xlink:title="Relation between BiocommonsGroup and GroupMembershipHistory">
<path fill="none" stroke="#1e88e5" stroke-dasharray="5,2" d="M363.48,-288.55C366.31,-278.62 370.43,-267.95 376.38,-259.25 378.59,-256.01 380.94,-252.82 383.42,-249.7"/>
<polygon fill="#1e88e5" stroke="#1e88e5" points="385.96,-252.12 389.71,-242.21 380.6,-247.61 385.96,-252.12"/>
</a>
</g>
<text xml:space="preserve" text-anchor="middle" x="412" y="-261" font-family="Roboto" font-size="10.00">approval_history</text>
</g>
<!-- Auth0Role&#45;&gt;BiocommonsGroup -->
<g id="edge17" class="edge">
<title>Auth0Role&#45;&gt;BiocommonsGroup</title>
<g id="a_edge17"><a xlink:title="Relation between Auth0Role and BiocommonsGroup">
<path fill="none" stroke="#1e88e5" stroke-dasharray="5,2" d="M260.78,-203.61C267.51,-224.94 277.89,-250.72 292.88,-270.5 295.58,-274.07 298.61,-277.5 301.84,-280.79"/>
<polygon fill="#1e88e5" stroke="#1e88e5" points="299.41,-283.32 309.11,-287.59 304.2,-278.2 299.41,-283.32"/>
</a>
</g>
<text xml:space="preserve" text-anchor="middle" x="323.25" y="-261" font-family="Roboto" font-size="10.00">admin_groups</text>
</g>
<!-- Auth0Role&#45;&gt;Platform -->
<g id="edge18" class="edge">
<title>Auth0Role&#45;&gt;Platform</title>
<g id="a_edge18"><a xlink:title="Relation between Auth0Role and Platform">
<path fill="none" stroke="#1e88e5" stroke-dasharray="5,2" d="M216.84,-120.87C196.37,-96.4 170.87,-65.91 153.13,-44.7"/>
<polygon fill="#1e88e5" stroke="#1e88e5" points="155.87,-42.53 146.77,-37.1 150.5,-47.02 155.87,-42.53"/>
</a>
</g>
<text xml:space="preserve" text-anchor="middle" x="206.12" y="-55.75" font-family="Roboto" font-size="10.00">admin_platforms</text>
</g>
<!-- GroupMembershipHistory&#45;&gt;BiocommonsUser -->
<g id="edge10" class="edge">
<title>GroupMembershipHistory&#45;&gt;BiocommonsUser</title>
<g id="a_edge10"><a xlink:title="Relation between GroupMembershipHistory and BiocommonsUser">
<path fill="none" stroke="#1e88e5" stroke-dasharray="5,2" d="M499.11,-241.16C501.94,-348.33 504.44,-531.1 489.62,-558 478.34,-578.49 461.24,-595.7 442.32,-609.91"/>
<polygon fill="#1e88e5" stroke="#1e88e5" points="440.53,-606.88 434.44,-615.55 444.61,-612.57 440.53,-606.88"/>
</a>
</g>
<text xml:space="preserve" text-anchor="middle" x="510.64" y="-372.5" font-family="Roboto" font-size="10.00">user</text>
</g>
<!-- GroupMembershipHistory&#45;&gt;BiocommonsUser -->
<g id="edge11" class="edge">
<title>GroupMembershipHistory&#45;&gt;BiocommonsUser</title>
<g id="a_edge11"><a xlink:title="Relation between GroupMembershipHistory and BiocommonsUser">
<path fill="none" stroke="#1e88e5" stroke-dasharray="5,2" d="M516.8,-241.23C534.04,-323.14 550.22,-454.23 509.62,-558 497.64,-588.63 471.66,-610.88 442.97,-626.86"/>
<polygon fill="#1e88e5" stroke="#1e88e5" points="441.7,-623.57 434.49,-631.33 444.97,-629.76 441.7,-623.57"/>
</a>
</g>
<text xml:space="preserve" text-anchor="middle" x="559.71" y="-372.5" font-family="Roboto" font-size="10.00">updated_by</text>
</g>
<!-- GroupMembershipHistory&#45;&gt;BiocommonsGroup -->
<g id="edge9" class="edge">
<title>GroupMembershipHistory&#45;&gt;BiocommonsGroup</title>
<g id="a_edge9"><a xlink:title="Relation between GroupMembershipHistory and BiocommonsGroup">
<path fill="none" stroke="#1e88e5" stroke-dasharray="5,2" d="M468.4,-241.16C462.54,-251.73 455.65,-261.89 447.62,-270.5 443.78,-274.63 439.51,-278.49 434.97,-282.08"/>
<polygon fill="#1e88e5" stroke="#1e88e5" points="433.2,-279.04 427.2,-287.77 437.33,-284.69 433.2,-279.04"/>
</a>
</g>
<text xml:space="preserve" text-anchor="middle" x="467.77" y="-261" font-family="Roboto" font-size="10.00">group</text>
</g>
<!-- PlatformMembershipHistory -->
<g id="node8" class="node">
<title>PlatformMembershipHistory</title>
<g id="a_node8"><a xlink:href="http://PlatformMembershipHistory_details.html" xlink:title="&lt;TABLE&gt;">
<polygon fill="#3f51b5" stroke="none" points="227.12,-908.25 227.12,-927 428.12,-927 428.12,-908.25 227.12,-908.25"/>
<polygon fill="none" stroke="black" points="227.12,-908.25 227.12,-927 428.12,-927 428.12,-908.25 227.12,-908.25"/>
<text xml:space="preserve" text-anchor="start" x="253.75" y="-912.6" font-family="Roboto" font-size="12.00" fill="white">PlatformMembershipHistory</text>
<polygon fill="#bbdefb" stroke="none" points="227.12,-889.5 227.12,-908.25 317.88,-908.25 317.88,-889.5 227.12,-889.5"/>
<polygon fill="none" stroke="black" points="227.12,-889.5 227.12,-908.25 317.88,-908.25 317.88,-889.5 227.12,-889.5"/>
<text xml:space="preserve" text-anchor="start" x="267.62" y="-893.85" font-family="Roboto" font-size="12.00">id</text>
<polygon fill="#bbdefb" stroke="none" points="317.88,-889.5 317.88,-908.25 428.12,-908.25 428.12,-889.5 317.88,-889.5"/>
<polygon fill="none" stroke="black" points="317.88,-889.5 317.88,-908.25 428.12,-908.25 428.12,-889.5 317.88,-889.5"/>
<text xml:space="preserve" text-anchor="start" x="331.38" y="-893.85" font-family="Roboto" font-size="12.00">CHAR(32) (PK)</text>
<polygon fill="#bbdefb" stroke="none" points="227.12,-870.75 227.12,-889.5 317.88,-889.5 317.88,-870.75 227.12,-870.75"/>
<polygon fill="none" stroke="black" points="227.12,-870.75 227.12,-889.5 317.88,-889.5 317.88,-870.75 227.12,-870.75"/>
<text xml:space="preserve" text-anchor="start" x="242.88" y="-875.1" font-family="Roboto" font-size="12.00">platform_id</text>
<polygon fill="#bbdefb" stroke="none" points="317.88,-870.75 317.88,-889.5 428.12,-889.5 428.12,-870.75 317.88,-870.75"/>
<polygon fill="none" stroke="black" points="317.88,-870.75 317.88,-889.5 428.12,-889.5 428.12,-870.75 317.88,-870.75"/>
<text xml:space="preserve" text-anchor="start" x="327.62" y="-875.1" font-family="Roboto" font-size="12.00">VARCHAR(15) ()</text>
<polygon fill="#bbdefb" stroke="none" points="227.12,-852 227.12,-870.75 317.88,-870.75 317.88,-852 227.12,-852"/>
<polygon fill="none" stroke="black" points="227.12,-852 227.12,-870.75 317.88,-870.75 317.88,-852 227.12,-852"/>
<text xml:space="preserve" text-anchor="start" x="252.62" y="-856.35" font-family="Roboto" font-size="12.00">user_id</text>
<polygon fill="#bbdefb" stroke="none" points="317.88,-852 317.88,-870.75 428.12,-870.75 428.12,-852 317.88,-852"/>
<polygon fill="none" stroke="black" points="317.88,-852 317.88,-870.75 428.12,-870.75 428.12,-852 317.88,-852"/>
<text xml:space="preserve" text-anchor="start" x="338.12" y="-856.35" font-family="Roboto" font-size="12.00">VARCHAR ()</text>
<polygon fill="#bbdefb" stroke="none" points="227.12,-833.25 227.12,-852 317.88,-852 317.88,-833.25 227.12,-833.25"/>
<polygon fill="none" stroke="black" points="227.12,-833.25 227.12,-852 317.88,-852 317.88,-833.25 227.12,-833.25"/>
<text xml:space="preserve" text-anchor="start" x="230.12" y="-837.6" font-family="Roboto" font-size="12.00">approval_status</text>
<polygon fill="#bbdefb" stroke="none" points="317.88,-833.25 317.88,-852 428.12,-852 428.12,-833.25 317.88,-833.25"/>
<polygon fill="none" stroke="black" points="317.88,-833.25 317.88,-852 428.12,-852 428.12,-833.25 317.88,-833.25"/>
<text xml:space="preserve" text-anchor="start" x="331" y="-837.6" font-family="Roboto" font-size="12.00">VARCHAR(8) ()</text>
<polygon fill="#bbdefb" stroke="none" points="227.12,-814.5 227.12,-833.25 317.88,-833.25 317.88,-814.5 227.12,-814.5"/>
<polygon fill="none" stroke="black" points="227.12,-814.5 227.12,-833.25 317.88,-833.25 317.88,-814.5 227.12,-814.5"/>
<text xml:space="preserve" text-anchor="start" x="242.5" y="-818.85" font-family="Roboto" font-size="12.00">updated_at</text>
<polygon fill="#bbdefb" stroke="none" points="317.88,-814.5 317.88,-833.25 428.12,-833.25 428.12,-814.5 317.88,-814.5"/>
<polygon fill="none" stroke="black" points="317.88,-814.5 317.88,-833.25 428.12,-833.25 428.12,-814.5 317.88,-814.5"/>
<text xml:space="preserve" text-anchor="start" x="337.75" y="-818.85" font-family="Roboto" font-size="12.00">DATETIME ()</text>
<polygon fill="#bbdefb" stroke="none" points="227.12,-795.75 227.12,-814.5 317.88,-814.5 317.88,-795.75 227.12,-795.75"/>
<polygon fill="none" stroke="black" points="227.12,-795.75 227.12,-814.5 317.88,-814.5 317.88,-795.75 227.12,-795.75"/>
<text xml:space="preserve" text-anchor="start" x="232.75" y="-800.1" font-family="Roboto" font-size="12.00">updated_by_id</text>
<polygon fill="#bbdefb" stroke="none" points="317.88,-795.75 317.88,-814.5 428.12,-814.5 428.12,-795.75 317.88,-795.75"/>
<polygon fill="none" stroke="black" points="317.88,-795.75 317.88,-814.5 428.12,-814.5 428.12,-795.75 317.88,-795.75"/>
<text xml:space="preserve" text-anchor="start" x="338.12" y="-800.1" font-family="Roboto" font-size="12.00">VARCHAR ()</text>
<polygon fill="#bbdefb" stroke="none" points="227.12,-777 227.12,-795.75 317.88,-795.75 317.88,-777 227.12,-777"/>
<polygon fill="none" stroke="black" points="227.12,-777 227.12,-795.75 317.88,-795.75 317.88,-777 227.12,-777"/>
<text xml:space="preserve" text-anchor="start" x="254.12" y="-781.35" font-family="Roboto" font-size="12.00">reason</text>
<polygon fill="#bbdefb" stroke="none" points="317.88,-777 317.88,-795.75 428.12,-795.75 428.12,-777 317.88,-777"/>
<polygon fill="none" stroke="black" points="317.88,-777 317.88,-795.75 428.12,-795.75 428.12,-777 317.88,-777"/>
<text xml:space="preserve" text-anchor="start" x="320.88" y="-781.35" font-family="Roboto" font-size="12.00">VARCHAR(1024) ()</text>
</a>
</g>
</g>
<!-- PlatformMembershipHistory&#45;&gt;BiocommonsUser -->
<g id="edge15" class="edge">
<title>PlatformMembershipHistory&#45;&gt;BiocommonsUser</title>
<g id="a_edge15"><a xlink:title="Relation between PlatformMembershipHistory and BiocommonsUser">
<path fill="none" stroke="#1e88e5" stroke-dasharray="5,2" d="M307.6,-773.25C306.73,-763.35 306.67,-753.33 307.88,-743.75 308.17,-741.44 308.5,-739.11 308.88,-736.75"/>
<polygon fill="#1e88e5" stroke="#1e88e5" points="312.28,-737.63 310.63,-727.17 305.39,-736.38 312.28,-737.63"/>
</a>
</g>
<text xml:space="preserve" text-anchor="middle" x="317.25" y="-745.5" font-family="Roboto" font-size="10.00">user</text>
</g>
<!-- PlatformMembershipHistory&#45;&gt;BiocommonsUser -->
<g id="edge16" class="edge">
<title>PlatformMembershipHistory&#45;&gt;BiocommonsUser</title>
<g id="a_edge16"><a xlink:title="Relation between PlatformMembershipHistory and BiocommonsUser">
<path fill="none" stroke="#1e88e5" stroke-dasharray="5,2" d="M327.62,-773.02C327.62,-761.02 327.62,-748.69 327.62,-736.87"/>
<polygon fill="#1e88e5" stroke="#1e88e5" points="331.13,-737.24 327.63,-727.24 324.13,-737.24 331.13,-737.24"/>
</a>
</g>
<text xml:space="preserve" text-anchor="middle" x="352.75" y="-745.5" font-family="Roboto" font-size="10.00">updated_by</text>
</g>
</g>
</svg>
